<svg xmlns="http://www.w3.org/2000/svg" xmlns:xlink="http://www.w3.org/1999/xlink" width="1080" zoomAndPan="magnify" viewBox="0 0 810 809.999993" height="1080" preserveAspectRatio="xMidYMid meet" version="1.0"><defs><clipPath id="e450ecc2e5"><path d="M 0 40 L 799 40 L 799 779.039062 L 0 779.039062 Z M 0 40 " clip-rule="nonzero"/></clipPath><clipPath id="9fecca12ea"><path d="M 67 40 L 792 40 L 792 779.039062 L 67 779.039062 Z M 67 40 " clip-rule="nonzero"/></clipPath><clipPath id="c465570604"><path d="M 58.296875 42 L 799 42 L 799 779.039062 L 58.296875 779.039062 Z M 58.296875 42 " clip-rule="nonzero"/></clipPath><clipPath id="0c24cd5a9c"><path d="M 150 229 L 809.984375 229 L 809.984375 756 L 150 756 Z M 150 229 " clip-rule="nonzero"/></clipPath></defs><g clip-path="url(#e450ecc2e5)"><path fill="#bcecf6" d="M 706.261719 617.835938 L 676.535156 573.125 L 665.0625 573.125 C 653.429688 588.652344 641.152344 603.621094 628.34375 617.835938 Z M 120.589844 114.894531 C 120.589844 115.578125 120.648438 116.257812 120.742188 116.914062 C 128.125 111.894531 135.773438 107.136719 143.648438 102.640625 C 141.285156 101.039062 138.4375 100.101562 135.371094 100.101562 C 127.21875 100.101562 120.589844 106.734375 120.589844 114.894531 Z M 798.671875 644.566406 L 764.203125 644.566406 L 779.808594 779.039062 L 754.773438 779.039062 L 739.160156 644.566406 L 650.890625 644.566406 L 635.285156 779.039062 L 610.242188 779.039062 L 625.851562 644.566406 L 602.746094 644.566406 C 535.980469 709.964844 457.832031 754.046875 381.226562 754.046875 C 346.988281 754.046875 313.070312 747.375 280.398438 735.355469 L 285.476562 779.039062 L 260.433594 779.039062 L 254.089844 724.398438 C 218.773438 707.976562 185.308594 685.402344 154.949219 658.40625 L 140.941406 779.039062 L 115.90625 779.039062 L 131.511719 644.566406 L 98.941406 644.566406 L 98.941406 617.835938 L 114.546875 617.835938 C 45.21875 539.382812 0 437.445312 0 340.753906 C 0 250.582031 39.324219 180.726562 100.855469 131.578125 C 99.792969 129.382812 98.933594 127.097656 98.3125 124.730469 L 87.050781 122.253906 L 87.050781 107.539062 L 98.3125 105.058594 C 99.1875 101.75 100.496094 98.585938 102.210938 95.632812 L 96 85.917969 L 106.410156 75.511719 L 116.121094 81.722656 C 119.074219 80 122.230469 78.695312 125.539062 77.824219 L 128.015625 66.554688 L 142.730469 66.554688 L 145.203125 77.824219 C 148.511719 78.695312 151.671875 80 154.625 81.722656 L 164.339844 75.511719 L 174.738281 85.917969 L 173.984375 87.101562 C 179.574219 84.542969 185.261719 82.097656 191.027344 79.765625 L 191.027344 66.554688 L 228.609375 66.554688 C 258.859375 57.414062 290.773438 51.144531 323.492188 47.765625 C 323.460938 47.484375 323.40625 47.210938 323.40625 46.914062 C 323.40625 43.5 326.191406 40.71875 329.609375 40.71875 C 332.929688 40.71875 335.621094 43.34375 335.777344 46.628906 C 350.8125 45.414062 365.984375 44.804688 381.226562 44.804688 C 577.007812 44.804688 782.925781 74.398438 782.925781 270.253906 C 782.925781 360.648438 739.054688 470.660156 672.5625 562.929688 L 724.527344 562.929688 L 761.03125 617.835938 L 798.671875 617.835938 Z M 91.3125 53.121094 C 94.726562 53.121094 97.507812 50.339844 97.507812 46.914062 C 97.507812 43.5 94.726562 40.71875 91.3125 40.71875 C 87.890625 40.71875 85.109375 43.5 85.109375 46.914062 C 85.109375 50.339844 87.890625 53.121094 91.3125 53.121094 Z M 567.152344 46.914062 C 567.152344 43.5 569.941406 40.71875 573.355469 40.71875 C 576.777344 40.71875 579.558594 43.5 579.558594 46.914062 C 579.558594 50.339844 576.777344 53.121094 573.355469 53.121094 C 569.941406 53.121094 567.152344 50.339844 567.152344 46.914062 " fill-opacity="1" fill-rule="nonzero"/></g><g clip-path="url(#9fecca12ea)"><path fill="#e16529" d="M 556.371094 51.40625 C 558.847656 51.40625 560.859375 49.394531 560.859375 46.914062 C 560.859375 44.441406 558.847656 42.433594 556.371094 42.433594 C 553.890625 42.433594 551.882812 44.441406 551.882812 46.914062 C 551.882812 49.394531 553.890625 51.40625 556.371094 51.40625 Z M 657.847656 185.703125 L 678.734375 185.703125 L 678.734375 180.558594 L 657.847656 180.558594 Z M 649.746094 116.261719 L 621.285156 99.257812 L 621.285156 133.273438 Z M 720.855469 163.230469 L 550.175781 163.230469 L 550.175781 74.042969 L 720.855469 74.042969 Z M 687.820312 174.835938 L 673.28125 174.835938 L 673.28125 179.984375 L 687.820312 179.984375 Z M 657.847656 174.835938 L 657.847656 179.984375 L 672.390625 179.984375 L 672.390625 174.835938 Z M 687.820312 169.121094 L 657.847656 169.121094 L 657.847656 174.265625 L 687.820312 174.265625 Z M 207.875 185.992188 L 190.425781 185.992188 L 190.425781 187.707031 L 207.875 187.707031 Z M 216.964844 181.984375 L 216.964844 180.269531 L 205.859375 180.269531 L 205.859375 181.984375 Z M 201.53125 180.269531 L 190.425781 180.269531 L 190.425781 181.984375 L 201.53125 181.984375 Z M 216.964844 174.554688 L 190.425781 174.554688 L 190.425781 176.269531 L 216.964844 176.269531 Z M 98.398438 185.992188 L 80.949219 185.992188 L 80.949219 187.707031 L 98.398438 187.707031 Z M 107.488281 181.984375 L 107.488281 180.269531 L 96.382812 180.269531 L 96.382812 181.984375 Z M 92.054688 180.269531 L 80.949219 180.269531 L 80.949219 181.984375 L 92.054688 181.984375 Z M 107.488281 174.554688 L 80.949219 174.554688 L 80.949219 176.269531 L 107.488281 176.269531 Z M 223.265625 132.730469 L 192.742188 132.730469 L 192.742188 143.417969 L 223.265625 143.417969 Z M 223.265625 86.113281 L 192.742188 86.113281 L 192.742188 96.792969 L 223.265625 96.792969 Z M 74.324219 51.40625 C 76.796875 51.40625 78.808594 49.394531 78.808594 46.914062 C 78.808594 44.441406 76.796875 42.433594 74.324219 42.433594 C 71.847656 42.433594 69.839844 44.441406 69.839844 46.914062 C 69.839844 49.394531 71.847656 51.40625 74.324219 51.40625 Z M 109.839844 114.894531 C 109.839844 128.980469 121.292969 140.4375 135.371094 140.4375 C 149.457031 140.4375 160.910156 128.980469 160.910156 114.894531 C 160.910156 100.8125 149.457031 89.347656 135.371094 89.347656 C 121.292969 89.347656 109.839844 100.8125 109.839844 114.894531 Z M 108.125 114.894531 C 108.125 99.859375 120.347656 87.632812 135.371094 87.632812 C 150.398438 87.632812 162.625 99.859375 162.625 114.894531 C 162.625 129.925781 150.398438 142.152344 135.371094 142.152344 C 120.347656 142.152344 108.125 129.925781 108.125 114.894531 Z M 433.476562 268.78125 C 432.078125 268.78125 430.796875 269.921875 430.625 271.320312 C 430.445312 272.722656 431.441406 273.851562 432.839844 273.851562 C 434.242188 273.851562 435.519531 272.722656 435.695312 271.320312 C 435.867188 269.921875 434.878906 268.78125 433.476562 268.78125 Z M 506.261719 269.597656 L 480.730469 269.597656 C 479.785156 269.597656 479.015625 270.367188 479.015625 271.3125 C 479.015625 272.265625 479.785156 273.027344 480.730469 273.027344 L 506.261719 273.027344 C 507.207031 273.027344 507.976562 272.265625 507.976562 271.3125 C 507.976562 270.367188 507.207031 269.597656 506.261719 269.597656 Z M 312.621094 53.121094 C 316.039062 53.121094 318.824219 50.339844 318.824219 46.914062 C 318.824219 43.5 316.039062 40.71875 312.621094 40.71875 C 309.207031 40.71875 306.425781 43.5 306.425781 46.914062 C 306.425781 50.339844 309.207031 53.121094 312.621094 53.121094 Z M 358.863281 168.5 C 358.863281 171.207031 361.066406 173.410156 363.773438 173.410156 L 400.90625 173.410156 C 403.613281 173.410156 405.816406 171.207031 405.816406 168.5 C 405.816406 165.792969 403.613281 163.59375 400.90625 163.59375 L 363.773438 163.59375 C 361.066406 163.59375 358.863281 165.792969 358.863281 168.5 Z M 324.90625 143.558594 L 362.046875 143.558594 C 364.75 143.558594 366.953125 141.363281 366.953125 138.648438 C 366.953125 135.941406 364.75 133.742188 362.046875 133.742188 L 324.90625 133.742188 C 322.199219 133.742188 319.996094 135.941406 319.996094 138.648438 C 319.996094 141.363281 322.199219 143.558594 324.90625 143.558594 Z M 324.90625 113.710938 L 389.253906 113.710938 C 391.957031 113.710938 394.15625 111.503906 394.15625 108.800781 C 394.15625 106.09375 391.957031 103.894531 389.253906 103.894531 L 324.90625 103.894531 C 322.199219 103.894531 319.996094 106.09375 319.996094 108.800781 C 319.996094 111.503906 322.199219 113.710938 324.90625 113.710938 Z M 401.65625 143.558594 L 414.789062 143.558594 C 417.496094 143.558594 419.695312 141.363281 419.695312 138.648438 C 419.695312 135.941406 417.496094 133.742188 414.789062 133.742188 L 401.65625 133.742188 C 398.949219 133.742188 396.746094 135.941406 396.746094 138.648438 C 396.746094 141.363281 398.949219 143.558594 401.65625 143.558594 Z M 388.265625 143.558594 C 390.972656 143.558594 393.175781 141.363281 393.175781 138.648438 C 393.175781 135.941406 390.972656 133.742188 388.265625 133.742188 L 375.140625 133.742188 C 372.433594 133.742188 370.230469 135.941406 370.230469 138.648438 C 370.230469 141.363281 372.433594 143.558594 375.140625 143.558594 Z M 324.90625 98.789062 L 338.039062 98.789062 C 340.746094 98.789062 342.949219 96.585938 342.949219 93.878906 C 342.949219 91.171875 340.746094 88.964844 338.039062 88.964844 L 324.90625 88.964844 C 322.199219 88.964844 319.996094 91.171875 319.996094 93.878906 C 319.996094 96.585938 322.199219 98.789062 324.90625 98.789062 Z M 324.90625 83.859375 L 369.132812 83.859375 C 371.835938 83.859375 374.042969 81.664062 374.042969 78.957031 C 374.042969 76.25 371.835938 74.042969 369.132812 74.042969 L 324.90625 74.042969 C 322.199219 74.042969 319.996094 76.25 319.996094 78.957031 C 319.996094 81.664062 322.199219 83.859375 324.90625 83.859375 Z M 420.417969 732.484375 L 108.332031 732.484375 C 95.476562 732.484375 85.054688 742.90625 85.054688 755.761719 C 85.054688 768.621094 95.476562 779.039062 108.332031 779.039062 L 420.417969 779.039062 C 433.269531 779.039062 443.683594 768.621094 443.683594 755.761719 C 443.683594 742.90625 433.269531 732.484375 420.417969 732.484375 Z M 780.472656 246.167969 C 780.472656 245.222656 779.703125 244.453125 778.757812 244.453125 L 694.453125 244.453125 C 693.5 244.453125 692.738281 245.222656 692.738281 246.167969 C 692.738281 247.117188 693.5 247.882812 694.453125 247.882812 L 778.757812 247.882812 C 779.703125 247.882812 780.472656 247.117188 780.472656 246.167969 Z M 740.863281 273.027344 L 755.316406 273.027344 C 756.261719 273.027344 757.03125 272.265625 757.03125 271.3125 C 757.03125 270.367188 756.261719 269.597656 755.316406 269.597656 L 740.863281 269.597656 C 739.917969 269.597656 739.148438 270.367188 739.148438 271.3125 C 739.148438 272.265625 739.917969 273.027344 740.863281 273.027344 Z M 774.855469 282.523438 C 774.855469 281.578125 774.082031 280.808594 773.140625 280.808594 L 739.457031 280.808594 C 738.511719 280.808594 737.742188 281.578125 737.742188 282.523438 C 737.742188 283.46875 738.511719 284.238281 739.457031 284.238281 L 773.140625 284.238281 C 774.082031 284.238281 774.855469 283.46875 774.855469 282.523438 Z M 738.050781 295.449219 L 755.34375 295.449219 C 756.292969 295.449219 757.058594 294.675781 757.058594 293.734375 C 757.058594 292.78125 756.292969 292.015625 755.34375 292.015625 L 738.050781 292.015625 C 737.105469 292.015625 736.335938 292.78125 736.335938 293.734375 C 736.335938 294.675781 737.105469 295.449219 738.050781 295.449219 Z M 727.914062 366.953125 C 726.964844 366.953125 726.199219 367.71875 726.199219 368.667969 C 726.199219 369.613281 726.964844 370.382812 727.914062 370.382812 L 742.363281 370.382812 C 743.308594 370.382812 744.078125 369.613281 744.078125 368.667969 C 744.078125 367.71875 743.308594 366.953125 742.363281 366.953125 Z M 761.898438 379.871094 C 761.898438 378.925781 761.128906 378.15625 760.183594 378.15625 L 726.5 378.15625 C 725.558594 378.15625 724.789062 378.925781 724.789062 379.871094 C 724.789062 380.824219 725.558594 381.585938 726.5 381.585938 L 760.183594 381.585938 C 761.128906 381.585938 761.898438 380.824219 761.898438 379.871094 Z M 744.105469 391.082031 C 744.105469 390.128906 743.339844 389.367188 742.390625 389.367188 L 725.09375 389.367188 C 724.152344 389.367188 723.378906 390.128906 723.378906 391.082031 C 723.378906 392.027344 724.152344 392.796875 725.09375 392.796875 L 742.390625 392.796875 C 743.339844 392.796875 744.105469 392.027344 744.105469 391.082031 Z M 707.199219 283.816406 C 707.199219 282.871094 706.433594 282.101562 705.484375 282.101562 L 676.597656 282.101562 C 675.644531 282.101562 674.882812 282.871094 674.882812 283.816406 C 674.882812 284.769531 675.644531 285.53125 676.597656 285.53125 L 705.484375 285.53125 C 706.433594 285.53125 707.199219 284.769531 707.199219 283.816406 Z M 692.730469 306.234375 C 692.730469 305.285156 691.96875 304.519531 691.015625 304.519531 L 665.773438 304.519531 C 664.828125 304.519531 664.058594 305.285156 664.058594 306.234375 C 664.058594 307.179688 664.828125 307.949219 665.773438 307.949219 L 691.015625 307.949219 C 691.96875 307.949219 692.730469 307.179688 692.730469 306.234375 Z M 686.695312 447.007812 C 686.695312 446.0625 685.933594 445.292969 684.980469 445.292969 L 639.53125 445.292969 C 638.585938 445.292969 637.816406 446.0625 637.816406 447.007812 C 637.816406 447.953125 638.585938 448.722656 639.53125 448.722656 L 684.980469 448.722656 C 685.933594 448.722656 686.695312 447.953125 686.695312 447.007812 Z M 557.75 258.816406 L 432.386719 258.816406 C 427.652344 258.816406 423.332031 262.65625 422.734375 267.394531 L 420.671875 283.816406 L 563.183594 283.816406 L 565.246094 267.394531 C 565.839844 262.65625 562.484375 258.816406 557.75 258.816406 Z M 543.382812 387.765625 C 543.382812 386.8125 542.613281 386.050781 541.667969 386.050781 L 526.371094 386.050781 C 525.425781 386.050781 524.65625 386.8125 524.65625 387.765625 C 524.65625 388.707031 525.425781 389.480469 526.371094 389.480469 L 541.667969 389.480469 C 542.613281 389.480469 543.382812 388.707031 543.382812 387.765625 Z M 506.484375 396 C 506.484375 395.046875 505.714844 394.285156 504.769531 394.285156 L 490.441406 394.285156 C 489.5 394.285156 488.726562 395.046875 488.726562 396 C 488.726562 396.945312 489.5 397.714844 490.441406 397.714844 L 504.769531 397.714844 C 505.714844 397.714844 506.484375 396.945312 506.484375 396 Z M 476.832031 387.765625 C 476.832031 386.8125 476.0625 386.050781 475.117188 386.050781 L 459.820312 386.050781 C 458.871094 386.050781 458.105469 386.8125 458.105469 387.765625 C 458.105469 388.707031 458.871094 389.480469 459.820312 389.480469 L 475.117188 389.480469 C 476.0625 389.480469 476.832031 388.707031 476.832031 387.765625 Z M 435.171875 454.050781 L 422.113281 454.050781 C 420.308594 454.050781 418.667969 455.511719 418.441406 457.3125 C 418.21875 459.109375 419.492188 460.570312 421.292969 460.570312 L 434.355469 460.570312 C 436.148438 460.570312 437.796875 459.109375 438.027344 457.3125 C 438.246094 455.511719 436.972656 454.050781 435.171875 454.050781 Z M 421.761719 431.71875 C 423.164062 431.71875 424.4375 430.578125 424.617188 429.179688 C 424.789062 427.777344 423.800781 426.640625 422.398438 426.640625 C 421 426.640625 419.71875 427.777344 419.546875 429.179688 C 419.367188 430.578125 420.363281 431.71875 421.761719 431.71875 Z M 420.261719 396 C 420.261719 396.945312 421.027344 397.714844 421.976562 397.714844 L 432.5 397.714844 C 433.445312 397.714844 434.214844 396.945312 434.214844 396 C 434.214844 395.046875 433.445312 394.285156 432.5 394.285156 L 421.976562 394.285156 C 421.027344 394.285156 420.261719 395.046875 420.261719 396 Z M 487.582031 306.234375 C 487.582031 305.285156 486.820312 304.519531 485.867188 304.519531 L 453.484375 304.519531 C 452.539062 304.519531 451.769531 305.285156 451.769531 306.234375 C 451.769531 307.179688 452.539062 307.949219 453.484375 307.949219 L 485.867188 307.949219 C 486.820312 307.949219 487.582031 307.179688 487.582031 306.234375 Z M 597.300781 491.832031 C 597.300781 492.785156 598.0625 493.546875 599.015625 493.546875 L 664.582031 493.546875 C 665.53125 493.546875 666.296875 492.785156 666.296875 491.832031 C 666.296875 490.886719 665.53125 490.117188 664.582031 490.117188 L 599.015625 490.117188 C 598.0625 490.117188 597.300781 490.886719 597.300781 491.832031 Z M 612.167969 373.472656 C 612.167969 374.417969 612.941406 375.1875 613.882812 375.1875 L 631.179688 375.1875 C 632.121094 375.1875 632.894531 374.417969 632.894531 373.472656 C 632.894531 372.519531 632.121094 371.757812 631.179688 371.757812 L 613.882812 371.757812 C 612.941406 371.757812 612.167969 372.519531 612.167969 373.472656 Z M 617.800781 328.648438 C 617.800781 329.59375 618.574219 330.363281 619.515625 330.363281 L 640.355469 330.363281 C 641.304688 330.363281 642.070312 329.59375 642.070312 328.648438 C 642.070312 327.695312 641.304688 326.933594 640.355469 326.933594 L 619.515625 326.933594 C 618.574219 326.933594 617.800781 327.695312 617.800781 328.648438 Z M 622.023438 295.027344 C 622.023438 295.96875 622.792969 296.742188 623.738281 296.742188 L 638.183594 296.742188 C 639.136719 296.742188 639.898438 295.96875 639.898438 295.027344 C 639.898438 294.082031 639.136719 293.3125 638.183594 293.3125 L 623.738281 293.3125 C 622.792969 293.3125 622.023438 294.082031 622.023438 295.027344 Z M 679.4375 328.648438 C 679.4375 327.695312 678.664062 326.933594 677.722656 326.933594 L 647.847656 326.933594 C 646.90625 326.933594 646.132812 327.695312 646.132812 328.648438 C 646.132812 329.59375 646.90625 330.363281 647.847656 330.363281 L 677.722656 330.363281 C 678.664062 330.363281 679.4375 329.59375 679.4375 328.648438 Z M 683.976562 363.976562 C 684.929688 363.976562 685.691406 363.214844 685.691406 362.261719 C 685.691406 361.316406 684.929688 360.546875 683.976562 360.546875 L 658.734375 360.546875 C 657.789062 360.546875 657.019531 361.316406 657.019531 362.261719 C 657.019531 363.214844 657.789062 363.976562 658.734375 363.976562 Z M 791.410156 251.890625 L 764.855469 491.523438 C 764.070312 498.601562 758.101562 503.941406 750.984375 503.941406 L 379.085938 503.941406 C 375.058594 503.941406 371.367188 502.292969 368.691406 499.296875 C 368.152344 498.699219 367.699219 498.0625 367.28125 497.40625 C 363.417969 524.859375 344.914062 555.832031 344.914062 579.988281 C 344.914062 606.515625 365.125 644.566406 365.125 644.566406 C 365.125 644.566406 357.953125 703.960938 285.132812 703.960938 C 258.8125 703.960938 240.230469 699.347656 230.671875 696.222656 C 225.710938 694.601562 222.054688 690.429688 220.933594 685.328125 C 212.46875 646.890625 218.210938 592.316406 224.175781 573.125 C 228.214844 560.15625 223.46875 493.714844 207.894531 446.351562 C 199.945312 422.191406 217.933594 397.324219 243.359375 397.324219 L 249.382812 378.15625 C 249.382812 378.15625 268.53125 368.894531 288.765625 373.011719 C 309 377.132812 318.664062 382.691406 326.207031 383.75 L 321.316406 397.433594 C 329.660156 398.164062 337.121094 403.132812 340.941406 410.710938 C 349.171875 427.074219 362.265625 455.183594 366.558594 476.300781 L 391.769531 248.8125 C 392.554688 241.730469 398.515625 236.390625 405.640625 236.390625 L 777.539062 236.390625 C 781.558594 236.390625 785.253906 238.046875 787.933594 241.042969 C 790.621094 244.035156 791.851562 247.890625 791.410156 251.890625 Z M 443.074219 268.78125 C 441.683594 268.78125 440.402344 269.921875 440.222656 271.320312 C 440.046875 272.722656 441.039062 273.851562 442.441406 273.851562 C 443.839844 273.851562 445.117188 272.722656 445.292969 271.320312 C 445.472656 269.921875 444.484375 268.78125 443.074219 268.78125 Z M 452.679688 268.78125 C 451.28125 268.78125 450 269.921875 449.828125 271.320312 C 449.652344 272.722656 450.644531 273.851562 452.042969 273.851562 C 453.445312 273.851562 454.722656 272.722656 454.898438 271.320312 C 455.070312 269.921875 454.082031 268.78125 452.679688 268.78125 Z M 189.882812 260.949219 L 169.46875 260.949219 L 169.46875 305.484375 L 189.882812 305.484375 Z M 118.257812 305.484375 L 138.671875 305.484375 L 138.671875 267.121094 L 118.257812 267.121094 Z M 87.460938 305.484375 L 67.046875 305.484375 L 67.046875 280.5 L 87.460938 280.5 L 87.460938 305.484375 " fill-opacity="1" fill-rule="nonzero"/></g><path fill="#fcedda" d="M 135.371094 131.40625 C 144.484375 131.40625 151.875 124.015625 151.875 114.894531 C 151.875 105.777344 144.484375 98.386719 135.371094 98.386719 C 126.261719 98.386719 118.875 105.777344 118.875 114.894531 C 118.875 124.015625 126.261719 131.40625 135.371094 131.40625 Z M 86.824219 46.914062 C 86.824219 49.394531 88.832031 51.40625 91.3125 51.40625 C 93.789062 51.40625 95.792969 49.394531 95.792969 46.914062 C 95.792969 44.441406 93.789062 42.433594 91.3125 42.433594 C 88.832031 42.433594 86.824219 44.441406 86.824219 46.914062 Z M 98.191406 86.160156 L 104.230469 95.605469 C 102.167969 98.921875 100.636719 102.59375 99.71875 106.507812 L 88.765625 108.914062 L 88.765625 120.871094 L 99.71875 123.285156 C 100.636719 127.199219 102.167969 130.871094 104.230469 134.1875 L 98.191406 143.632812 L 106.644531 152.089844 L 116.09375 146.050781 C 119.410156 148.109375 123.074219 149.644531 126.984375 150.5625 L 129.394531 161.515625 L 141.351562 161.515625 L 143.761719 150.5625 C 147.667969 149.644531 151.335938 148.109375 154.652344 146.050781 L 164.105469 152.089844 L 172.554688 143.632812 L 166.515625 134.1875 C 168.570312 130.871094 170.113281 127.199219 171.03125 123.285156 L 181.980469 120.871094 L 181.980469 108.914062 L 171.03125 106.507812 C 170.113281 102.59375 168.570312 98.921875 166.515625 95.605469 L 172.554688 86.160156 L 164.105469 77.695312 L 154.652344 83.738281 C 151.335938 81.683594 147.667969 80.140625 143.761719 79.230469 L 141.351562 68.269531 L 129.394531 68.269531 L 126.984375 79.230469 C 123.074219 80.140625 119.410156 81.683594 116.09375 83.738281 L 106.644531 77.695312 Z M 192.742188 125.578125 L 239.382812 125.578125 L 239.382812 114.894531 L 192.742188 114.894531 Z M 192.742188 78.957031 L 239.382812 78.957031 L 239.382812 68.269531 L 192.742188 68.269531 Z M 143.976562 174.554688 L 117.441406 174.554688 L 117.441406 176.269531 L 143.976562 176.269531 Z M 143.976562 180.269531 L 132.871094 180.269531 L 132.871094 181.984375 L 143.976562 181.984375 Z M 128.546875 181.984375 L 128.546875 180.269531 L 117.441406 180.269531 L 117.441406 181.984375 Z M 134.894531 185.992188 L 117.441406 185.992188 L 117.441406 187.707031 L 134.894531 187.707031 Z M 259.917969 164.453125 L 290.933594 164.453125 L 290.933594 117.121094 L 259.917969 117.121094 Z M 259.917969 115.40625 L 290.933594 115.40625 L 290.933594 68.082031 L 259.917969 68.082031 Z M 308.140625 168.5 C 308.140625 170.265625 309.566406 171.695312 311.328125 171.695312 L 311.628906 171.695312 C 313.398438 171.695312 314.824219 170.265625 314.824219 168.5 C 314.824219 166.734375 313.398438 165.308594 311.628906 165.308594 L 311.328125 165.308594 C 309.566406 165.308594 308.140625 166.734375 308.140625 168.5 Z M 308.140625 153.578125 C 308.140625 155.339844 309.566406 156.773438 311.328125 156.773438 L 311.628906 156.773438 C 313.398438 156.773438 314.824219 155.339844 314.824219 153.578125 C 314.824219 151.816406 313.398438 150.378906 311.628906 150.378906 L 311.328125 150.378906 C 309.566406 150.378906 308.140625 151.816406 308.140625 153.578125 Z M 308.140625 138.65625 C 308.140625 140.417969 309.566406 141.84375 311.328125 141.84375 L 311.628906 141.84375 C 313.398438 141.84375 314.824219 140.417969 314.824219 138.65625 C 314.824219 136.886719 313.398438 135.460938 311.628906 135.460938 L 311.328125 135.460938 C 309.566406 135.460938 308.140625 136.886719 308.140625 138.65625 Z M 308.140625 123.726562 C 308.140625 125.488281 309.566406 126.921875 311.328125 126.921875 L 311.628906 126.921875 C 313.398438 126.921875 314.824219 125.488281 314.824219 123.726562 C 314.824219 121.964844 313.398438 120.53125 311.628906 120.53125 L 311.328125 120.53125 C 309.566406 120.53125 308.140625 121.964844 308.140625 123.726562 Z M 308.140625 108.800781 C 308.140625 110.566406 309.566406 111.996094 311.328125 111.996094 L 311.628906 111.996094 C 313.398438 111.996094 314.824219 110.566406 314.824219 108.800781 C 314.824219 107.035156 313.398438 105.609375 311.628906 105.609375 L 311.328125 105.609375 C 309.566406 105.609375 308.140625 107.035156 308.140625 108.800781 Z M 308.140625 93.878906 C 308.140625 95.640625 309.566406 97.074219 311.328125 97.074219 L 311.628906 97.074219 C 313.398438 97.074219 314.824219 95.640625 314.824219 93.878906 C 314.824219 92.117188 313.398438 90.679688 311.628906 90.679688 L 311.328125 90.679688 C 309.566406 90.679688 308.140625 92.117188 308.140625 93.878906 Z M 308.140625 78.957031 C 308.140625 80.71875 309.566406 82.144531 311.328125 82.144531 L 311.628906 82.144531 C 313.398438 82.144531 314.824219 80.71875 314.824219 78.957031 C 314.824219 77.1875 313.398438 75.761719 311.628906 75.761719 L 311.328125 75.761719 C 309.566406 75.761719 308.140625 77.1875 308.140625 78.957031 Z M 308.140625 64.027344 C 308.140625 65.789062 309.566406 67.222656 311.328125 67.222656 L 311.628906 67.222656 C 313.398438 67.222656 314.824219 65.789062 314.824219 64.027344 C 314.824219 62.265625 313.398438 60.832031 311.628906 60.832031 L 311.328125 60.832031 C 309.566406 60.832031 308.140625 62.265625 308.140625 64.027344 Z M 308.140625 46.914062 C 308.140625 49.394531 310.144531 51.40625 312.621094 51.40625 C 315.101562 51.40625 317.109375 49.394531 317.109375 46.914062 C 317.109375 44.441406 315.101562 42.433594 312.621094 42.433594 C 310.144531 42.433594 308.140625 44.441406 308.140625 46.914062 Z M 321.710938 168.5 C 321.710938 170.265625 323.144531 171.695312 324.90625 171.695312 L 351.984375 171.695312 C 353.746094 171.695312 355.179688 170.265625 355.179688 168.5 C 355.179688 166.734375 353.746094 165.308594 351.984375 165.308594 L 324.90625 165.308594 C 323.144531 165.308594 321.710938 166.734375 321.710938 168.5 Z M 321.710938 153.578125 C 321.710938 155.339844 323.144531 156.773438 324.90625 156.773438 L 382.847656 156.773438 C 384.609375 156.773438 386.042969 155.339844 386.042969 153.578125 C 386.042969 151.816406 384.609375 150.378906 382.847656 150.378906 L 324.90625 150.378906 C 323.144531 150.378906 321.710938 151.816406 321.710938 153.578125 Z M 321.710938 138.65625 C 321.710938 140.417969 323.144531 141.84375 324.90625 141.84375 L 362.046875 141.84375 C 363.808594 141.84375 365.238281 140.417969 365.238281 138.65625 C 365.238281 136.886719 363.808594 135.460938 362.046875 135.460938 L 324.90625 135.460938 C 323.144531 135.460938 321.710938 136.886719 321.710938 138.65625 Z M 321.710938 123.726562 C 321.710938 125.488281 323.144531 126.921875 324.90625 126.921875 L 373.933594 126.921875 C 375.695312 126.921875 377.121094 125.488281 377.121094 123.726562 C 377.121094 121.964844 375.695312 120.53125 373.933594 120.53125 L 324.90625 120.53125 C 323.144531 120.53125 321.710938 121.964844 321.710938 123.726562 Z M 321.710938 108.800781 C 321.710938 110.566406 323.144531 111.996094 324.90625 111.996094 L 389.253906 111.996094 C 391.011719 111.996094 392.441406 110.566406 392.441406 108.800781 C 392.441406 107.035156 391.011719 105.609375 389.253906 105.609375 L 324.90625 105.609375 C 323.144531 105.609375 321.710938 107.035156 321.710938 108.800781 Z M 321.710938 93.878906 C 321.710938 95.640625 323.144531 97.074219 324.90625 97.074219 L 338.039062 97.074219 C 339.800781 97.074219 341.234375 95.640625 341.234375 93.878906 C 341.234375 92.117188 339.800781 90.679688 338.039062 90.679688 L 324.90625 90.679688 C 323.144531 90.679688 321.710938 92.117188 321.710938 93.878906 Z M 321.710938 78.957031 C 321.710938 80.71875 323.144531 82.144531 324.90625 82.144531 L 369.132812 82.144531 C 370.894531 82.144531 372.328125 80.71875 372.328125 78.957031 C 372.328125 77.1875 370.894531 75.761719 369.132812 75.761719 L 324.90625 75.761719 C 323.144531 75.761719 321.710938 77.1875 321.710938 78.957031 Z M 321.710938 64.027344 C 321.710938 65.789062 323.144531 67.222656 324.90625 67.222656 L 345.214844 67.222656 C 346.976562 67.222656 348.402344 65.789062 348.402344 64.027344 C 348.402344 62.265625 346.976562 60.832031 345.214844 60.832031 L 324.90625 60.832031 C 323.144531 60.832031 321.710938 62.265625 321.710938 64.027344 Z M 325.121094 46.914062 C 325.121094 49.394531 327.128906 51.40625 329.609375 51.40625 C 332.085938 51.40625 334.09375 49.394531 334.09375 46.914062 C 334.09375 44.441406 332.085938 42.433594 329.609375 42.433594 C 327.128906 42.433594 325.121094 44.441406 325.121094 46.914062 Z M 418.214844 90.679688 L 353.867188 90.679688 C 352.105469 90.679688 350.679688 92.117188 350.679688 93.878906 C 350.679688 95.640625 352.105469 97.074219 353.867188 97.074219 L 418.214844 97.074219 C 419.976562 97.074219 421.410156 95.640625 421.410156 93.878906 C 421.410156 92.117188 419.976562 90.679688 418.214844 90.679688 Z M 419.578125 108.800781 C 419.578125 107.035156 418.152344 105.609375 416.390625 105.609375 L 403.257812 105.609375 C 401.496094 105.609375 400.0625 107.035156 400.0625 108.800781 C 400.0625 110.566406 401.496094 111.996094 403.257812 111.996094 L 416.390625 111.996094 C 418.152344 111.996094 419.578125 110.566406 419.578125 108.800781 Z M 417.980469 138.65625 C 417.980469 136.886719 416.550781 135.460938 414.789062 135.460938 L 401.65625 135.460938 C 399.894531 135.460938 398.460938 136.886719 398.460938 138.65625 C 398.460938 140.417969 399.894531 141.84375 401.65625 141.84375 L 414.789062 141.84375 C 416.550781 141.84375 417.980469 140.417969 417.980469 138.65625 Z M 391.460938 138.65625 C 391.460938 136.886719 390.035156 135.460938 388.265625 135.460938 L 375.132812 135.460938 C 373.371094 135.460938 371.945312 136.886719 371.945312 138.65625 C 371.945312 140.417969 373.371094 141.84375 375.132812 141.84375 L 388.265625 141.84375 C 390.035156 141.84375 391.460938 140.417969 391.460938 138.65625 Z M 404.101562 168.5 C 404.101562 166.734375 402.675781 165.308594 400.90625 165.308594 L 363.773438 165.308594 C 362.003906 165.308594 360.578125 166.734375 360.578125 168.5 C 360.578125 170.265625 362.003906 171.695312 363.773438 171.695312 L 400.90625 171.695312 C 402.675781 171.695312 404.101562 170.265625 404.101562 168.5 Z M 491.992188 164.453125 L 532.585938 164.453125 L 532.585938 117.121094 L 491.992188 117.121094 Z M 491.992188 115.40625 L 532.585938 115.40625 L 532.585938 68.082031 L 491.992188 68.082031 Z M 551.882812 161.515625 L 719.140625 161.515625 L 719.140625 75.761719 L 551.882812 75.761719 Z M 568.867188 46.914062 C 568.867188 49.394531 570.878906 51.40625 573.355469 51.40625 C 575.832031 51.40625 577.84375 49.394531 577.84375 46.914062 C 577.84375 44.441406 575.832031 42.433594 573.355469 42.433594 C 570.878906 42.433594 568.867188 44.441406 568.867188 46.914062 Z M 686.105469 170.835938 L 659.5625 170.835938 L 659.5625 172.550781 L 686.105469 172.550781 Z M 686.105469 176.550781 L 674.996094 176.550781 L 674.996094 178.265625 L 686.105469 178.265625 Z M 670.675781 178.265625 L 670.675781 176.550781 L 659.5625 176.550781 L 659.5625 178.265625 Z M 677.019531 182.273438 L 659.5625 182.273438 L 659.5625 183.988281 L 677.019531 183.988281 Z M 631.238281 170.835938 L 604.695312 170.835938 L 604.695312 172.550781 L 631.238281 172.550781 Z M 631.238281 176.550781 L 620.125 176.550781 L 620.125 178.265625 L 631.238281 178.265625 Z M 615.804688 178.265625 L 615.804688 176.550781 L 604.695312 176.550781 L 604.695312 178.265625 Z M 622.148438 182.273438 L 604.695312 182.273438 L 604.695312 183.988281 L 622.148438 183.988281 Z M 58.859375 199.085938 L 58.859375 39.78125 C 58.859375 35.042969 62.699219 31.203125 67.433594 31.203125 L 251.34375 31.203125 C 256.078125 31.203125 259.917969 35.042969 259.917969 39.78125 L 259.917969 66.367188 L 290.933594 66.367188 L 290.933594 39.78125 C 290.933594 35.042969 294.773438 31.203125 299.507812 31.203125 L 483.417969 31.203125 C 488.152344 31.203125 491.992188 35.042969 491.992188 39.78125 L 491.992188 66.367188 L 532.585938 66.367188 L 532.585938 39.78125 C 532.585938 35.042969 536.421875 31.203125 541.160156 31.203125 L 725.0625 31.203125 C 729.804688 31.203125 733.636719 35.042969 733.636719 39.78125 L 733.636719 164.453125 L 755.792969 164.453125 C 756.140625 165.015625 756.460938 165.597656 756.796875 166.167969 L 733.636719 166.167969 L 733.636719 199.085938 C 733.636719 203.820312 729.804688 207.660156 725.0625 207.660156 L 541.160156 207.660156 C 536.421875 207.660156 532.585938 203.820312 532.585938 199.085938 L 532.585938 166.167969 L 491.992188 166.167969 L 491.992188 181.242188 C 491.992188 185.980469 488.152344 189.820312 483.417969 189.820312 L 299.507812 189.820312 C 294.773438 189.820312 290.933594 185.980469 290.933594 181.242188 L 290.933594 166.167969 L 259.917969 166.167969 L 259.917969 199.085938 C 259.917969 203.820312 256.078125 207.660156 251.34375 207.660156 L 67.433594 207.660156 C 62.699219 207.660156 58.859375 203.820312 58.859375 199.085938 Z M 649.183594 244.453125 C 648.238281 244.453125 647.46875 245.222656 647.46875 246.167969 C 647.46875 247.117188 648.238281 247.882812 649.183594 247.882812 L 683.816406 247.882812 C 684.769531 247.882812 685.53125 247.117188 685.53125 246.167969 C 685.53125 245.222656 684.769531 244.453125 683.816406 244.453125 Z M 686.695312 447.007812 C 686.695312 446.0625 685.933594 445.292969 684.980469 445.292969 L 639.53125 445.292969 C 638.585938 445.292969 637.816406 446.0625 637.816406 447.007812 C 637.816406 447.953125 638.585938 448.722656 639.53125 448.722656 L 684.980469 448.722656 C 685.933594 448.722656 686.695312 447.953125 686.695312 447.007812 Z M 667.703125 480.628906 C 667.703125 479.679688 666.9375 478.914062 665.988281 478.914062 L 600.421875 478.914062 C 599.476562 478.914062 598.707031 479.679688 598.707031 480.628906 C 598.707031 481.574219 599.476562 482.34375 600.421875 482.34375 L 665.988281 482.34375 C 666.9375 482.34375 667.703125 481.574219 667.703125 480.628906 Z M 666.296875 491.832031 C 666.296875 490.886719 665.53125 490.117188 664.582031 490.117188 L 599.015625 490.117188 C 598.0625 490.117188 597.300781 490.886719 597.300781 491.832031 C 597.300781 492.785156 598.0625 493.546875 599.015625 493.546875 L 664.582031 493.546875 C 665.53125 493.546875 666.296875 492.785156 666.296875 491.832031 Z M 601.519531 458.210938 C 601.519531 459.164062 602.289062 459.925781 603.234375 459.925781 L 656.222656 459.925781 C 657.164062 459.925781 657.9375 459.164062 657.9375 458.210938 C 657.9375 457.265625 657.164062 456.496094 656.222656 456.496094 L 603.234375 456.496094 C 602.289062 456.496094 601.519531 457.265625 601.519531 458.210938 Z M 602.933594 447.007812 C 602.933594 447.953125 603.695312 448.722656 604.648438 448.722656 L 627.375 448.722656 C 628.316406 448.722656 629.089844 447.953125 629.089844 447.007812 C 629.089844 446.0625 628.316406 445.292969 627.375 445.292969 L 604.648438 445.292969 C 603.695312 445.292969 602.933594 446.0625 602.933594 447.007812 Z M 604.339844 435.804688 C 604.339844 436.75 605.101562 437.519531 606.054688 437.519531 L 671.621094 437.519531 C 672.570312 437.519531 673.335938 436.75 673.335938 435.804688 C 673.335938 434.855469 672.570312 434.089844 671.621094 434.089844 L 606.054688 434.089844 C 605.101562 434.089844 604.339844 434.855469 604.339844 435.804688 Z M 591.722656 435.804688 C 591.722656 434.855469 590.949219 434.089844 590.007812 434.089844 L 578.574219 434.089844 C 577.628906 434.089844 576.859375 434.855469 576.859375 435.804688 C 576.859375 436.75 577.628906 437.519531 578.574219 437.519531 L 590.007812 437.519531 C 590.949219 437.519531 591.722656 436.75 591.722656 435.804688 Z M 590.308594 447.007812 C 590.308594 446.0625 589.542969 445.292969 588.59375 445.292969 L 577.167969 445.292969 C 576.214844 445.292969 575.453125 446.0625 575.453125 447.007812 C 575.453125 447.953125 576.214844 448.722656 577.167969 448.722656 L 588.59375 448.722656 C 589.542969 448.722656 590.308594 447.953125 590.308594 447.007812 Z M 588.902344 458.210938 C 588.902344 457.265625 588.136719 456.496094 587.1875 456.496094 L 575.753906 456.496094 C 574.808594 456.496094 574.039062 457.265625 574.039062 458.210938 C 574.039062 459.164062 574.808594 459.925781 575.753906 459.925781 L 587.1875 459.925781 C 588.136719 459.925781 588.902344 459.164062 588.902344 458.210938 Z M 586.089844 480.628906 C 586.089844 479.679688 585.316406 478.914062 584.375 478.914062 L 572.941406 478.914062 C 571.996094 478.914062 571.226562 479.679688 571.226562 480.628906 C 571.226562 481.574219 571.996094 482.34375 572.941406 482.34375 L 584.375 482.34375 C 585.316406 482.34375 586.089844 481.574219 586.089844 480.628906 Z M 584.683594 491.832031 C 584.683594 490.886719 583.910156 490.117188 582.96875 490.117188 L 571.535156 490.117188 C 570.582031 490.117188 569.820312 490.886719 569.820312 491.832031 C 569.820312 492.785156 570.582031 493.546875 571.535156 493.546875 L 582.96875 493.546875 C 583.910156 493.546875 584.683594 492.785156 584.683594 491.832031 Z M 709.375 428.910156 L 699.945312 503.941406 L 679.363281 503.941406 C 679.535156 503.679688 679.65625 503.378906 679.65625 503.042969 C 679.65625 502.089844 678.894531 501.328125 677.941406 501.328125 L 632.492188 501.328125 C 631.546875 501.328125 630.777344 502.089844 630.777344 503.042969 C 630.777344 503.378906 630.898438 503.679688 631.070312 503.941406 L 621.753906 503.941406 C 621.921875 503.679688 622.050781 503.378906 622.050781 503.042969 C 622.050781 502.089844 621.277344 501.328125 620.335938 501.328125 L 597.601562 501.328125 C 596.65625 501.328125 595.886719 502.089844 595.886719 503.042969 C 595.886719 503.378906 596.015625 503.679688 596.183594 503.941406 L 582.972656 503.941406 C 583.148438 503.679688 583.269531 503.378906 583.269531 503.042969 C 583.269531 502.089844 582.503906 501.328125 581.554688 501.328125 L 570.128906 501.328125 C 569.175781 501.328125 568.414062 502.089844 568.414062 503.042969 C 568.414062 503.378906 568.535156 503.679688 568.707031 503.941406 L 557.433594 503.941406 L 566.867188 428.910156 C 567.460938 424.171875 571.78125 420.335938 576.515625 420.335938 L 701.878906 420.335938 C 706.609375 420.335938 709.972656 424.171875 709.375 428.910156 Z M 465.96875 454.050781 L 452.910156 454.050781 C 451.105469 454.050781 449.464844 455.511719 449.246094 457.3125 C 449.015625 459.109375 450.289062 460.570312 452.089844 460.570312 L 465.152344 460.570312 C 466.953125 460.570312 468.59375 459.109375 468.824219 457.3125 C 469.042969 455.511719 467.769531 454.050781 465.96875 454.050781 Z M 435.171875 454.050781 L 422.113281 454.050781 C 420.308594 454.050781 418.667969 455.511719 418.441406 457.3125 C 418.21875 459.109375 419.492188 460.570312 421.292969 460.570312 L 434.355469 460.570312 C 436.148438 460.570312 437.796875 459.109375 438.027344 457.3125 C 438.246094 455.511719 436.972656 454.050781 435.171875 454.050781 Z M 412.796875 426.640625 C 411.394531 426.640625 410.117188 427.777344 409.941406 429.179688 C 409.765625 430.578125 410.757812 431.71875 412.160156 431.71875 C 413.558594 431.71875 414.835938 430.578125 415.011719 429.179688 C 415.191406 427.777344 414.195312 426.640625 412.796875 426.640625 Z M 421.761719 431.71875 C 423.164062 431.71875 424.4375 430.578125 424.617188 429.179688 C 424.789062 427.777344 423.800781 426.640625 422.398438 426.640625 C 421 426.640625 419.71875 427.777344 419.546875 429.179688 C 419.367188 430.578125 420.363281 431.71875 421.761719 431.71875 Z M 431.363281 431.71875 C 432.761719 431.71875 434.039062 430.578125 434.214844 429.179688 C 434.394531 427.777344 433.402344 426.640625 431.996094 426.640625 C 430.597656 426.640625 429.324219 427.777344 429.144531 429.179688 C 428.96875 430.578125 429.960938 431.71875 431.363281 431.71875 Z M 458.066406 442.382812 L 432.511719 442.382812 C 431.570312 442.382812 430.796875 443.15625 430.796875 444.101562 C 430.796875 445.050781 431.570312 445.816406 432.511719 445.816406 L 458.066406 445.816406 C 459.015625 445.816406 459.78125 445.050781 459.78125 444.101562 C 459.78125 443.15625 459.015625 442.382812 458.066406 442.382812 Z M 484.019531 420.3125 C 488.753906 420.3125 492.117188 424.160156 491.519531 428.890625 L 487.925781 457.480469 C 487.335938 462.21875 483.007812 466.058594 478.28125 466.058594 L 405.46875 466.058594 C 400.730469 466.058594 397.375 462.21875 397.972656 457.480469 L 401.5625 428.890625 C 402.160156 424.160156 406.480469 420.3125 411.214844 420.3125 Z M 445.292969 271.320312 C 445.472656 269.921875 444.484375 268.78125 443.074219 268.78125 C 441.683594 268.78125 440.402344 269.921875 440.222656 271.320312 C 440.046875 272.722656 441.039062 273.851562 442.441406 273.851562 C 443.839844 273.851562 445.117188 272.722656 445.292969 271.320312 Z M 535.8125 396 C 535.8125 395.046875 535.042969 394.285156 534.101562 394.285156 L 525.339844 394.285156 C 524.386719 394.285156 523.625 395.046875 523.625 396 C 523.625 396.945312 524.386719 397.714844 525.339844 397.714844 L 534.101562 397.714844 C 535.042969 397.714844 535.8125 396.945312 535.8125 396 Z M 523.25 307.949219 C 524.195312 307.949219 524.964844 307.179688 524.964844 306.234375 C 524.964844 305.285156 524.195312 304.519531 523.25 304.519531 L 497.722656 304.519531 C 496.777344 304.519531 496.007812 305.285156 496.007812 306.234375 C 496.007812 307.179688 496.777344 307.949219 497.722656 307.949219 Z M 518.28125 321.25 L 456.171875 321.25 C 453.644531 321.25 451.339844 323.300781 451.027344 325.828125 L 449.144531 340.769531 C 448.828125 343.289062 450.617188 345.339844 453.144531 345.339844 L 515.25 345.339844 C 517.777344 345.339844 520.082031 343.289062 520.394531 340.769531 L 522.269531 325.828125 C 522.59375 323.300781 520.796875 321.25 518.28125 321.25 Z M 491.480469 389.480469 L 500.242188 389.480469 C 501.1875 389.480469 501.957031 388.707031 501.957031 387.765625 C 501.957031 386.8125 501.1875 386.050781 500.242188 386.050781 L 491.480469 386.050781 C 490.53125 386.050781 489.765625 386.8125 489.765625 387.765625 C 489.765625 388.707031 490.53125 389.480469 491.480469 389.480469 Z M 506.484375 396 C 506.484375 395.046875 505.714844 394.285156 504.769531 394.285156 L 490.441406 394.285156 C 489.5 394.285156 488.726562 395.046875 488.726562 396 C 488.726562 396.945312 489.5 397.714844 490.441406 397.714844 L 504.769531 397.714844 C 505.714844 397.714844 506.484375 396.945312 506.484375 396 Z M 476.832031 387.765625 C 476.832031 386.8125 476.0625 386.050781 475.117188 386.050781 L 459.820312 386.050781 C 458.871094 386.050781 458.105469 386.8125 458.105469 387.765625 C 458.105469 388.707031 458.871094 389.480469 459.820312 389.480469 L 475.117188 389.480469 C 476.0625 389.480469 476.832031 388.707031 476.832031 387.765625 Z M 469.265625 396 C 469.265625 395.046875 468.496094 394.285156 467.550781 394.285156 L 458.78125 394.285156 C 457.839844 394.285156 457.066406 395.046875 457.066406 396 C 457.066406 396.945312 457.839844 397.714844 458.78125 397.714844 L 467.550781 397.714844 C 468.496094 397.714844 469.265625 396.945312 469.265625 396 Z M 442.246094 387.765625 C 442.246094 386.8125 441.480469 386.050781 440.53125 386.050781 L 423.007812 386.050781 C 422.066406 386.050781 421.292969 386.8125 421.292969 387.765625 C 421.292969 388.707031 422.066406 389.480469 423.007812 389.480469 L 440.53125 389.480469 C 441.480469 389.480469 442.246094 388.707031 442.246094 387.765625 Z M 434.214844 396 C 434.214844 395.046875 433.445312 394.285156 432.5 394.285156 L 421.976562 394.285156 C 421.027344 394.285156 420.261719 395.046875 420.261719 396 C 420.261719 396.945312 421.027344 397.714844 421.976562 397.714844 L 432.5 397.714844 C 433.445312 397.714844 434.214844 396.945312 434.214844 396 Z M 451.769531 306.234375 C 451.769531 307.179688 452.539062 307.949219 453.484375 307.949219 L 485.867188 307.949219 C 486.820312 307.949219 487.582031 307.179688 487.582031 306.234375 C 487.582031 305.285156 486.820312 304.519531 485.867188 304.519531 L 453.484375 304.519531 C 452.539062 304.519531 451.769531 305.285156 451.769531 306.234375 Z M 524.65625 387.765625 C 524.65625 388.707031 525.425781 389.480469 526.371094 389.480469 L 541.667969 389.480469 C 542.613281 389.480469 543.382812 388.707031 543.382812 387.765625 C 543.382812 386.8125 542.613281 386.050781 541.667969 386.050781 L 526.371094 386.050781 C 525.425781 386.050781 524.65625 386.8125 524.65625 387.765625 Z M 539.035156 407.777344 L 413.671875 407.777344 C 408.9375 407.777344 405.582031 403.9375 406.175781 399.203125 L 420.671875 283.816406 L 563.183594 283.816406 L 565.246094 267.394531 L 548.679688 399.203125 C 548.089844 403.9375 543.769531 407.777344 539.035156 407.777344 Z M 731.003906 491.785156 L 713.703125 491.785156 C 712.757812 491.785156 711.988281 492.554688 711.988281 493.5 C 711.988281 494.445312 712.757812 495.214844 713.703125 495.214844 L 731.003906 495.214844 C 731.949219 495.214844 732.71875 494.445312 732.71875 493.5 C 732.71875 492.554688 731.949219 491.785156 731.003906 491.785156 Z M 739.457031 480.578125 L 715.117188 480.578125 C 714.164062 480.578125 713.402344 481.347656 713.402344 482.292969 C 713.402344 483.242188 714.164062 484.007812 715.117188 484.007812 L 739.457031 484.007812 C 740.40625 484.007812 741.171875 483.242188 741.171875 482.292969 C 741.171875 481.347656 740.40625 480.578125 739.457031 480.578125 Z M 716.523438 472.804688 L 730.96875 472.804688 C 731.914062 472.804688 732.683594 472.035156 732.683594 471.089844 C 732.683594 470.144531 731.914062 469.375 730.96875 469.375 L 716.523438 469.375 C 715.570312 469.375 714.808594 470.144531 714.808594 471.089844 C 714.808594 472.035156 715.570312 472.804688 716.523438 472.804688 Z M 747.839844 342.785156 L 730.546875 342.785156 C 729.597656 342.785156 728.832031 343.554688 728.832031 344.5 C 728.832031 345.453125 729.597656 346.214844 730.546875 346.214844 L 747.839844 346.214844 C 748.785156 346.214844 749.554688 345.453125 749.554688 344.5 C 749.554688 343.554688 748.785156 342.785156 747.839844 342.785156 Z M 756.292969 331.582031 L 731.953125 331.582031 C 731.003906 331.582031 730.238281 332.347656 730.238281 333.296875 C 730.238281 334.242188 731.003906 335.011719 731.953125 335.011719 L 756.292969 335.011719 C 757.246094 335.011719 758.007812 334.242188 758.007812 333.296875 C 758.007812 332.347656 757.246094 331.582031 756.292969 331.582031 Z M 733.359375 320.371094 C 732.417969 320.371094 731.644531 321.144531 731.644531 322.089844 C 731.644531 323.039062 732.417969 323.804688 733.359375 323.804688 L 747.808594 323.804688 C 748.757812 323.804688 749.523438 323.039062 749.523438 322.089844 C 749.523438 321.144531 748.757812 320.371094 747.808594 320.371094 Z M 707.199219 283.816406 C 707.199219 282.871094 706.433594 282.101562 705.484375 282.101562 L 676.597656 282.101562 C 675.644531 282.101562 674.882812 282.871094 674.882812 283.816406 C 674.882812 284.769531 675.644531 285.53125 676.597656 285.53125 L 705.484375 285.53125 C 706.433594 285.53125 707.199219 284.769531 707.199219 283.816406 Z M 692.730469 306.234375 C 692.730469 305.285156 691.96875 304.519531 691.015625 304.519531 L 665.773438 304.519531 C 664.828125 304.519531 664.058594 305.285156 664.058594 306.234375 C 664.058594 307.179688 664.828125 307.949219 665.773438 307.949219 L 691.015625 307.949219 C 691.96875 307.949219 692.730469 307.179688 692.730469 306.234375 Z M 685.691406 362.261719 C 685.691406 361.316406 684.929688 360.546875 683.976562 360.546875 L 658.734375 360.546875 C 657.789062 360.546875 657.019531 361.316406 657.019531 362.261719 C 657.019531 363.214844 657.789062 363.976562 658.734375 363.976562 L 683.976562 363.976562 C 684.929688 363.976562 685.691406 363.214844 685.691406 362.261719 Z M 673.160156 373.472656 C 673.160156 372.519531 672.398438 371.757812 671.445312 371.757812 L 640.945312 371.757812 C 639.992188 371.757812 639.230469 372.519531 639.230469 373.472656 C 639.230469 374.417969 639.992188 375.1875 640.945312 375.1875 L 671.445312 375.1875 C 672.398438 375.1875 673.160156 374.417969 673.160156 373.472656 Z M 655.875 384.675781 C 655.875 383.730469 655.101562 382.960938 654.160156 382.960938 L 612.476562 382.960938 C 611.527344 382.960938 610.761719 383.730469 610.761719 384.675781 C 610.761719 385.625 611.527344 386.390625 612.476562 386.390625 L 654.160156 386.390625 C 655.101562 386.390625 655.875 385.625 655.875 384.675781 Z M 610.808594 283.816406 C 610.808594 282.871094 610.046875 282.101562 609.09375 282.101562 L 597.667969 282.101562 C 596.722656 282.101562 595.953125 282.871094 595.953125 283.816406 C 595.953125 284.769531 596.722656 285.53125 597.667969 285.53125 L 609.09375 285.53125 C 610.046875 285.53125 610.808594 284.769531 610.808594 283.816406 Z M 609.402344 295.027344 C 609.402344 294.082031 608.640625 293.3125 607.6875 293.3125 L 596.261719 293.3125 C 595.3125 293.3125 594.546875 294.082031 594.546875 295.027344 C 594.546875 295.96875 595.3125 296.742188 596.261719 296.742188 L 607.6875 296.742188 C 608.640625 296.742188 609.402344 295.96875 609.402344 295.027344 Z M 607.996094 306.234375 C 607.996094 305.285156 607.234375 304.519531 606.28125 304.519531 L 594.855469 304.519531 C 593.90625 304.519531 593.140625 305.285156 593.140625 306.234375 C 593.140625 307.179688 593.90625 307.949219 594.855469 307.949219 L 606.28125 307.949219 C 607.234375 307.949219 607.996094 307.179688 607.996094 306.234375 Z M 606.589844 317.4375 C 606.589844 316.492188 605.820312 315.722656 604.875 315.722656 L 593.441406 315.722656 C 592.5 315.722656 591.726562 316.492188 591.726562 317.4375 C 591.726562 318.382812 592.5 319.152344 593.441406 319.152344 L 604.875 319.152344 C 605.820312 319.152344 606.589844 318.382812 606.589844 317.4375 Z M 605.183594 328.648438 C 605.183594 327.695312 604.414062 326.933594 603.46875 326.933594 L 592.035156 326.933594 C 591.089844 326.933594 590.320312 327.695312 590.320312 328.648438 C 590.320312 329.59375 591.089844 330.363281 592.035156 330.363281 L 603.46875 330.363281 C 604.414062 330.363281 605.183594 329.59375 605.183594 328.648438 Z M 602.363281 351.058594 C 602.363281 350.109375 601.601562 349.34375 600.648438 349.34375 L 589.222656 349.34375 C 588.273438 349.34375 587.507812 350.109375 587.507812 351.058594 C 587.507812 352.003906 588.273438 352.777344 589.222656 352.777344 L 600.648438 352.777344 C 601.601562 352.777344 602.363281 352.003906 602.363281 351.058594 Z M 600.957031 362.261719 C 600.957031 361.316406 600.1875 360.546875 599.242188 360.546875 L 587.808594 360.546875 C 586.867188 360.546875 586.09375 361.316406 586.09375 362.261719 C 586.09375 363.214844 586.867188 363.976562 587.808594 363.976562 L 599.242188 363.976562 C 600.1875 363.976562 600.957031 363.214844 600.957031 362.261719 Z M 599.550781 373.472656 C 599.550781 372.519531 598.78125 371.757812 597.835938 371.757812 L 586.402344 371.757812 C 585.457031 371.757812 584.6875 372.519531 584.6875 373.472656 C 584.6875 374.417969 585.457031 375.1875 586.402344 375.1875 L 597.835938 375.1875 C 598.78125 375.1875 599.550781 374.417969 599.550781 373.472656 Z M 598.144531 384.675781 C 598.144531 383.730469 597.375 382.960938 596.429688 382.960938 L 584.996094 382.960938 C 584.050781 382.960938 583.28125 383.730469 583.28125 384.675781 C 583.28125 385.625 584.050781 386.390625 584.996094 386.390625 L 596.429688 386.390625 C 597.375 386.390625 598.144531 385.625 598.144531 384.675781 Z M 612.167969 373.472656 C 612.167969 374.417969 612.941406 375.1875 613.882812 375.1875 L 631.179688 375.1875 C 632.121094 375.1875 632.894531 374.417969 632.894531 373.472656 C 632.894531 372.519531 632.121094 371.757812 631.179688 371.757812 L 613.882812 371.757812 C 612.941406 371.757812 612.167969 372.519531 612.167969 373.472656 Z M 613.578125 362.261719 C 613.578125 363.214844 614.347656 363.976562 615.289062 363.976562 L 648.972656 363.976562 C 649.917969 363.976562 650.6875 363.214844 650.6875 362.261719 C 650.6875 361.316406 649.917969 360.546875 648.972656 360.546875 L 615.289062 360.546875 C 614.347656 360.546875 613.578125 361.316406 613.578125 362.261719 Z M 614.984375 351.058594 C 614.984375 352.003906 615.753906 352.777344 616.699219 352.777344 L 631.144531 352.777344 C 632.097656 352.777344 632.859375 352.003906 632.859375 351.058594 C 632.859375 350.109375 632.097656 349.34375 631.144531 349.34375 L 616.699219 349.34375 C 615.753906 349.34375 614.984375 350.109375 614.984375 351.058594 Z M 617.800781 328.648438 C 617.800781 329.59375 618.574219 330.363281 619.515625 330.363281 L 640.355469 330.363281 C 641.304688 330.363281 642.070312 329.59375 642.070312 328.648438 C 642.070312 327.695312 641.304688 326.933594 640.355469 326.933594 L 619.515625 326.933594 C 618.574219 326.933594 617.800781 327.695312 617.800781 328.648438 Z M 619.210938 317.4375 C 619.210938 318.382812 619.980469 319.152344 620.921875 319.152344 L 638.21875 319.152344 C 639.167969 319.152344 639.933594 318.382812 639.933594 317.4375 C 639.933594 316.492188 639.167969 315.722656 638.21875 315.722656 L 620.921875 315.722656 C 619.980469 315.722656 619.210938 316.492188 619.210938 317.4375 Z M 620.617188 306.234375 C 620.617188 307.179688 621.386719 307.949219 622.332031 307.949219 L 656.015625 307.949219 C 656.957031 307.949219 657.726562 307.179688 657.726562 306.234375 C 657.726562 305.285156 656.957031 304.519531 656.015625 304.519531 L 622.332031 304.519531 C 621.386719 304.519531 620.617188 305.285156 620.617188 306.234375 Z M 622.023438 295.027344 C 622.023438 295.96875 622.792969 296.742188 623.738281 296.742188 L 638.183594 296.742188 C 639.136719 296.742188 639.898438 295.96875 639.898438 295.027344 C 639.898438 294.082031 639.136719 293.3125 638.183594 293.3125 L 623.738281 293.3125 C 622.792969 293.3125 622.023438 294.082031 622.023438 295.027344 Z M 623.433594 283.816406 C 623.433594 284.769531 624.199219 285.53125 625.148438 285.53125 L 666.832031 285.53125 C 667.773438 285.53125 668.546875 284.769531 668.546875 283.816406 C 668.546875 282.871094 667.773438 282.101562 666.832031 282.101562 L 625.148438 282.101562 C 624.199219 282.101562 623.433594 282.871094 623.433594 283.816406 Z M 674.808594 296.742188 C 675.757812 296.742188 676.523438 295.96875 676.523438 295.027344 C 676.523438 294.082031 675.757812 293.3125 674.808594 293.3125 L 645.914062 293.3125 C 644.96875 293.3125 644.199219 294.082031 644.199219 295.027344 C 644.199219 295.96875 644.96875 296.742188 645.914062 296.742188 Z M 661.152344 317.4375 C 661.152344 316.492188 660.378906 315.722656 659.4375 315.722656 L 647.984375 315.722656 C 647.03125 315.722656 646.269531 316.492188 646.269531 317.4375 C 646.269531 318.382812 647.03125 319.152344 647.984375 319.152344 L 659.4375 319.152344 C 660.378906 319.152344 661.152344 318.382812 661.152344 317.4375 Z M 667.769531 349.34375 L 638.875 349.34375 C 637.929688 349.34375 637.160156 350.109375 637.160156 351.058594 C 637.160156 352.003906 637.929688 352.777344 638.875 352.777344 L 667.769531 352.777344 C 668.71875 352.777344 669.484375 352.003906 669.484375 351.058594 C 669.484375 350.109375 668.71875 349.34375 667.769531 349.34375 Z M 677.722656 330.363281 C 678.664062 330.363281 679.4375 329.59375 679.4375 328.648438 C 679.4375 327.695312 678.664062 326.933594 677.722656 326.933594 L 647.847656 326.933594 C 646.90625 326.933594 646.132812 327.695312 646.132812 328.648438 C 646.132812 329.59375 646.90625 330.363281 647.847656 330.363281 Z M 713.105469 399.203125 C 712.511719 403.9375 708.191406 407.777344 703.453125 407.777344 L 578.089844 407.777344 C 573.355469 407.777344 570 403.9375 570.597656 399.203125 L 587.160156 267.394531 C 587.75 262.65625 592.074219 258.816406 596.804688 258.816406 L 722.167969 258.816406 C 726.902344 258.816406 730.257812 262.65625 729.671875 267.394531 Z M 264.941406 311.574219 L 263.347656 298.417969 C 261.804688 285.640625 265.570312 273.566406 272.796875 264.246094 L 202.5625 264.246094 L 202.5625 311.382812 C 202.5625 311.449219 202.542969 311.507812 202.542969 311.574219 Z M 188.167969 262.664062 L 171.183594 262.664062 L 171.183594 303.769531 L 188.167969 303.769531 Z M 162.5625 264.246094 L 162.5625 257.519531 L 145.578125 257.519531 L 145.578125 303.769531 L 162.5625 303.769531 Z M 136.957031 268.835938 L 119.972656 268.835938 L 119.972656 303.769531 L 136.957031 303.769531 Z M 111.351562 289.484375 L 94.367188 289.484375 L 94.367188 303.769531 L 111.351562 303.769531 Z M 85.746094 282.214844 L 68.761719 282.214844 L 68.761719 303.769531 L 85.746094 303.769531 Z M 259.308594 362.328125 L 0.761719 362.328125 C 0.722656 361.761719 0.675781 361.183594 0.644531 360.613281 L 259.789062 360.613281 L 264.492188 344.046875 C 266.515625 336.902344 267.097656 329.4375 266.207031 322.066406 L 265.148438 313.289062 L 202.328125 313.289062 C 201.457031 317.101562 198.0625 319.957031 193.988281 319.957031 L 67.433594 319.957031 C 63.355469 319.957031 59.960938 317.101562 59.089844 313.289062 L 1.265625 313.289062 C 1.320312 312.714844 1.386719 312.144531 1.445312 311.574219 L 58.878906 311.574219 C 58.878906 311.507812 58.859375 311.449219 58.859375 311.382812 L 58.859375 264.246094 L 10.402344 264.246094 C 10.5625 263.667969 10.742188 263.105469 10.910156 262.53125 L 58.859375 262.53125 L 58.859375 244.96875 C 58.859375 240.230469 62.699219 236.390625 67.433594 236.390625 L 193.988281 236.390625 C 198.71875 236.390625 202.5625 240.230469 202.5625 244.96875 L 202.5625 262.53125 L 274.195312 262.53125 C 282.703125 252.574219 295.339844 246.167969 309.640625 246.167969 C 323.753906 246.167969 336.511719 252.472656 345.105469 262.53125 L 390.25 262.53125 L 390.0625 264.246094 L 346.507812 264.246094 C 351.683594 270.925781 355.105469 279.074219 356.023438 288.03125 L 356.492188 292.566406 L 366.257812 311.574219 L 384.816406 311.574219 L 384.625 313.289062 L 366.886719 313.289062 C 366.929688 314.375 366.25 315.429688 365.121094 315.757812 L 361.289062 316.882812 C 360.171875 317.203125 359.441406 318.261719 359.527344 319.421875 C 360.117188 327.054688 361.832031 354.269531 356.492188 357.144531 C 350.277344 360.496094 320.597656 354.492188 320.597656 354.492188 C 320.035156 356.515625 319.574219 358.558594 319.1875 360.613281 L 379.378906 360.613281 L 379.191406 362.328125 L 318.890625 362.328125 C 317.839844 368.695312 317.578125 375.160156 318.128906 381.578125 C 311.476562 379.308594 302.589844 375.824219 288.765625 373.011719 C 275.515625 370.316406 262.742188 373.359375 255.496094 375.777344 Z M 220.425781 500.449219 C 218.316406 487.121094 215.535156 473.375 212.058594 460.414062 L 212.066406 460.414062 C 212.007812 460.1875 211.945312 459.964844 211.886719 459.746094 C 210.640625 455.164062 209.3125 450.671875 207.894531 446.351562 C 203.144531 431.90625 207.660156 417.226562 217.492188 407.738281 C 217.015625 407.953125 216.535156 408.140625 216.066406 408.375 C 215.261719 408.777344 214.5 409.210938 213.742188 409.652344 L 7.292969 409.652344 C 7.414062 410.230469 7.527344 410.800781 7.648438 411.371094 L 211.101562 411.371094 C 196.273438 422.015625 191.492188 442.40625 200.660156 458.699219 L 20.789062 458.699219 C 20.984375 459.269531 21.164062 459.84375 21.367188 460.414062 L 201.617188 460.414062 Z M 381.226562 754.046875 C 388.226562 754.046875 395.238281 753.664062 402.257812 752.949219 L 357.402344 752.949219 C 365.320312 753.652344 373.265625 754.046875 381.226562 754.046875 Z M 285.132812 703.960938 C 283.472656 703.960938 281.851562 703.941406 280.257812 703.910156 L 215.992188 703.910156 C 216.9375 704.484375 217.886719 705.046875 218.832031 705.625 L 527.160156 705.625 C 528.042969 705.054688 528.921875 704.480469 529.800781 703.910156 L 287.222656 703.910156 C 286.519531 703.914062 285.851562 703.960938 285.132812 703.960938 Z M 217.0625 654.863281 L 150.988281 654.863281 C 151.617188 655.441406 152.25 656.007812 152.878906 656.578125 L 217.164062 656.578125 C 217.128906 656.007812 217.097656 655.441406 217.0625 654.863281 Z M 361.910156 656.578125 L 590.09375 656.578125 C 590.710938 656.007812 591.324219 655.441406 591.941406 654.863281 L 362.519531 654.863281 C 362.328125 655.425781 362.125 655.988281 361.910156 656.578125 Z M 218.417969 605.824219 L 104.238281 605.824219 C 104.722656 606.398438 105.210938 606.964844 105.691406 607.539062 L 218.242188 607.539062 C 218.296875 606.964844 218.355469 606.394531 218.417969 605.824219 Z M 225.535156 556.777344 L 68.492188 556.777344 C 68.859375 557.355469 69.230469 557.925781 69.597656 558.492188 L 225.535156 558.492188 C 225.535156 557.9375 225.535156 557.367188 225.535156 556.777344 Z M 489.738281 581.382812 C 493.757812 582.03125 497.710938 582.65625 501.535156 583.238281 L 501.097656 582.5625 L 490.925781 580.402344 Z M 579.371094 605.824219 L 605.175781 605.824219 L 597.011719 600.128906 L 582.410156 603.464844 Z M 381.375 507.738281 L 708.410156 507.738281 C 708.074219 508.308594 707.746094 508.886719 707.414062 509.453125 L 382.246094 509.453125 C 393.109375 530.507812 403.070312 548.007812 409.078125 556.777344 L 676.9375 556.777344 C 676.535156 557.355469 676.132812 557.925781 675.730469 558.492188 L 410.285156 558.492188 C 411.84375 560.664062 413.070312 562.085938 413.867188 562.613281 C 420.234375 566.863281 435.984375 571.125 454.375 574.941406 L 483.550781 563.925781 C 486.53125 562.808594 489.867188 563.191406 492.511719 564.960938 L 506.925781 574.59375 L 512.941406 584.941406 C 524.195312 586.566406 533.441406 587.785156 538.59375 588.445312 L 554.566406 587.839844 L 588.828125 576 C 591.902344 574.941406 595.304688 575.425781 597.957031 577.316406 L 612.398438 587.566406 L 622.332031 605.824219 L 638.886719 605.824219 C 638.398438 606.394531 637.910156 606.96875 637.421875 607.539062 L 623.261719 607.539062 L 623.597656 608.15625 C 624.234375 609.328125 623.75 610.796875 622.539062 611.351562 C 620.121094 611.183594 617.355469 609.976562 615.101562 608.296875 L 615.6875 612.242188 C 615.953125 614.046875 614.480469 615.640625 612.664062 615.507812 C 609.832031 615.304688 607.5 613.199219 607.011719 610.402344 L 606.511719 607.539062 L 577.152344 607.539062 L 570.132812 612.972656 C 566.824219 615.527344 562.972656 617.234375 558.910156 617.976562 C 556.261719 618.460938 553.535156 618.378906 550.871094 618.019531 L 534.667969 615.78125 L 414.0625 614.921875 C 399.5 614.3125 388.777344 611.546875 380.617188 607.539062 L 349.855469 607.539062 C 349.769531 607.265625 349.6875 606.988281 349.609375 606.707031 L 349.601562 606.707031 C 349.535156 606.480469 349.46875 606.253906 349.398438 606.019531 C 349.378906 605.957031 349.359375 605.890625 349.339844 605.824219 L 349.347656 605.824219 C 346.765625 597.074219 344.914062 588 344.914062 579.988281 C 344.914062 575.425781 345.589844 570.613281 346.6875 565.628906 C 346.96875 565.683594 347.257812 565.738281 347.542969 565.789062 L 329.453125 530.855469 C 328.503906 531.054688 327.53125 531.164062 326.539062 531.164062 C 317.539062 531.164062 308.65625 522.722656 301.984375 509.453125 L 41.902344 509.453125 C 41.628906 508.886719 41.339844 508.316406 41.058594 507.738281 L 301.148438 507.738281 C 296.253906 497.40625 292.65625 484.414062 291.277344 470.285156 C 290.171875 458.953125 290.632812 448.355469 292.339844 439.269531 C 292.207031 427.390625 295.410156 417.015625 304.261719 412.890625 C 304.972656 412.554688 305.691406 412.292969 306.398438 412.019531 C 308.929688 410.324219 311.691406 409.40625 314.652344 409.40625 C 315.855469 409.40625 317.054688 409.574219 318.25 409.863281 C 330.125 410.128906 340.6875 417.714844 345.6875 430.304688 C 355.695312 455.484375 369.050781 483.777344 381.363281 507.738281 Z M 368.320312 460.414062 L 368.507812 458.699219 L 361.648438 458.699219 C 361.84375 459.269531 362.039062 459.84375 362.226562 460.414062 Z M 373.949219 409.652344 L 340.363281 409.652344 C 340.558594 410.007812 340.757812 410.359375 340.941406 410.710938 C 341.046875 410.925781 341.160156 411.15625 341.269531 411.371094 L 373.761719 411.371094 Z M 776.234375 213.492188 L 31.179688 213.492188 C 30.871094 214.058594 30.570312 214.636719 30.265625 215.207031 L 776.648438 215.207031 C 776.507812 214.636719 776.375 214.058594 776.234375 213.492188 " fill-opacity="1" fill-rule="nonzero"/><g clip-path="url(#c465570604)"><path fill="#444340" d="M 589.589844 562.070312 L 541.292969 562.21875 L 517.148438 562.300781 L 493 562.539062 L 493 563.316406 L 517.148438 563.550781 L 541.292969 563.632812 L 589.589844 563.78125 L 637.882812 563.597656 L 662.035156 563.503906 L 686.179688 563.257812 L 686.179688 562.601562 L 662.035156 562.351562 L 637.882812 562.253906 Z M 569.335938 182.273438 L 551.890625 182.273438 L 551.890625 183.988281 L 569.335938 183.988281 Z M 578.425781 178.265625 L 578.425781 176.550781 L 567.320312 176.550781 L 567.320312 178.265625 Z M 562.992188 176.550781 L 551.890625 176.550781 L 551.890625 178.265625 L 562.992188 178.265625 Z M 578.425781 170.835938 L 551.890625 170.835938 L 551.890625 172.550781 L 578.425781 172.550781 Z M 590.339844 51.40625 C 592.820312 51.40625 594.828125 49.394531 594.828125 46.914062 C 594.828125 44.441406 592.820312 42.433594 590.339844 42.433594 C 587.863281 42.433594 585.859375 44.441406 585.859375 46.914062 C 585.859375 49.394531 587.863281 51.40625 590.339844 51.40625 Z M 346.59375 51.40625 C 349.070312 51.40625 351.082031 49.394531 351.082031 46.914062 C 351.082031 44.441406 349.070312 42.433594 346.59375 42.433594 C 344.113281 42.433594 342.105469 44.441406 342.105469 46.914062 C 342.105469 49.394531 344.113281 51.40625 346.59375 51.40625 Z M 171.382812 185.992188 L 153.929688 185.992188 L 153.929688 187.707031 L 171.382812 187.707031 Z M 180.472656 181.984375 L 180.472656 180.269531 L 169.363281 180.269531 L 169.363281 181.984375 Z M 165.042969 180.269531 L 153.929688 180.269531 L 153.929688 181.984375 L 165.042969 181.984375 Z M 180.472656 174.554688 L 153.929688 174.554688 L 153.929688 176.269531 L 180.472656 176.269531 Z M 108.296875 51.40625 C 110.769531 51.40625 112.777344 49.394531 112.777344 46.914062 C 112.777344 44.441406 110.769531 42.433594 108.296875 42.433594 C 105.820312 42.433594 103.808594 44.441406 103.808594 46.914062 C 103.808594 49.394531 105.820312 51.40625 108.296875 51.40625 Z M 76.394531 312.003906 L 78.109375 312.003906 L 78.109375 310.175781 L 102 310.175781 L 102 312.003906 L 103.714844 312.003906 L 103.714844 310.175781 L 127.605469 310.175781 L 127.605469 312.003906 L 129.320312 312.003906 L 129.320312 310.175781 L 153.214844 310.175781 L 153.214844 312.003906 L 154.929688 312.003906 L 154.929688 310.175781 L 178.820312 310.175781 L 178.820312 312.003906 L 180.535156 312.003906 L 180.535156 310.175781 L 188.335938 310.175781 L 188.335938 308.460938 L 180.535156 308.460938 L 180.535156 306.628906 L 178.820312 306.628906 L 178.820312 308.460938 L 154.929688 308.460938 L 154.929688 306.628906 L 153.214844 306.628906 L 153.214844 308.460938 L 129.320312 308.460938 L 129.320312 306.628906 L 127.605469 306.628906 L 127.605469 308.460938 L 103.714844 308.460938 L 103.714844 306.628906 L 102 306.628906 L 102 308.460938 L 78.109375 308.460938 L 78.109375 306.628906 L 76.394531 306.628906 L 76.394531 308.460938 L 68.761719 308.460938 L 68.761719 310.175781 L 76.394531 310.175781 Z M 633.058594 246.167969 C 633.058594 245.222656 632.289062 244.453125 631.34375 244.453125 L 409.820312 244.453125 C 408.871094 244.453125 408.105469 245.222656 408.105469 246.167969 C 408.105469 247.117188 408.871094 247.882812 409.820312 247.882812 L 631.34375 247.882812 C 632.289062 247.882812 633.058594 247.117188 633.058594 246.167969 Z M 582.96875 490.117188 L 571.535156 490.117188 C 570.582031 490.117188 569.820312 490.886719 569.820312 491.832031 C 569.820312 492.785156 570.582031 493.546875 571.535156 493.546875 L 582.96875 493.546875 C 583.910156 493.546875 584.683594 492.785156 584.683594 491.832031 C 584.683594 490.886719 583.910156 490.117188 582.96875 490.117188 Z M 586.089844 480.628906 C 586.089844 479.679688 585.316406 478.914062 584.375 478.914062 L 572.941406 478.914062 C 571.996094 478.914062 571.226562 479.679688 571.226562 480.628906 C 571.226562 481.574219 571.996094 482.34375 572.941406 482.34375 L 584.375 482.34375 C 585.316406 482.34375 586.089844 481.574219 586.089844 480.628906 Z M 588.902344 458.210938 C 588.902344 457.265625 588.136719 456.496094 587.1875 456.496094 L 575.753906 456.496094 C 574.808594 456.496094 574.039062 457.265625 574.039062 458.210938 C 574.039062 459.164062 574.808594 459.925781 575.753906 459.925781 L 587.1875 459.925781 C 588.136719 459.925781 588.902344 459.164062 588.902344 458.210938 Z M 590.308594 447.007812 C 590.308594 446.0625 589.542969 445.292969 588.59375 445.292969 L 577.167969 445.292969 C 576.214844 445.292969 575.453125 446.0625 575.453125 447.007812 C 575.453125 447.953125 576.214844 448.722656 577.167969 448.722656 L 588.59375 448.722656 C 589.542969 448.722656 590.308594 447.953125 590.308594 447.007812 Z M 591.722656 435.804688 C 591.722656 434.855469 590.949219 434.089844 590.007812 434.089844 L 578.574219 434.089844 C 577.628906 434.089844 576.859375 434.855469 576.859375 435.804688 C 576.859375 436.75 577.628906 437.519531 578.574219 437.519531 L 590.007812 437.519531 C 590.949219 437.519531 591.722656 436.75 591.722656 435.804688 Z M 429.144531 429.179688 C 428.96875 430.578125 429.960938 431.71875 431.363281 431.71875 C 432.761719 431.71875 434.039062 430.578125 434.214844 429.179688 C 434.394531 427.777344 433.402344 426.640625 431.996094 426.640625 C 430.597656 426.640625 429.324219 427.777344 429.144531 429.179688 Z M 449.828125 271.320312 C 449.652344 272.722656 450.644531 273.851562 452.042969 273.851562 C 453.445312 273.851562 454.722656 272.722656 454.898438 271.320312 C 455.070312 269.921875 454.082031 268.78125 452.679688 268.78125 C 451.28125 268.78125 450 269.921875 449.828125 271.320312 Z M 475.207031 331.582031 C 474.261719 331.582031 473.492188 332.347656 473.492188 333.296875 C 473.492188 334.242188 474.261719 335.011719 475.207031 335.011719 L 496.214844 335.011719 C 497.160156 335.011719 497.929688 334.242188 497.929688 333.296875 C 497.929688 332.347656 497.160156 331.582031 496.214844 331.582031 Z M 598.144531 384.675781 C 598.144531 383.730469 597.375 382.960938 596.429688 382.960938 L 584.996094 382.960938 C 584.050781 382.960938 583.28125 383.730469 583.28125 384.675781 C 583.28125 385.625 584.050781 386.390625 584.996094 386.390625 L 596.429688 386.390625 C 597.375 386.390625 598.144531 385.625 598.144531 384.675781 Z M 599.550781 373.472656 C 599.550781 372.519531 598.78125 371.757812 597.835938 371.757812 L 586.402344 371.757812 C 585.457031 371.757812 584.6875 372.519531 584.6875 373.472656 C 584.6875 374.417969 585.457031 375.1875 586.402344 375.1875 L 597.835938 375.1875 C 598.78125 375.1875 599.550781 374.417969 599.550781 373.472656 Z M 600.957031 362.261719 C 600.957031 361.316406 600.1875 360.546875 599.242188 360.546875 L 587.808594 360.546875 C 586.867188 360.546875 586.09375 361.316406 586.09375 362.261719 C 586.09375 363.214844 586.867188 363.976562 587.808594 363.976562 L 599.242188 363.976562 C 600.1875 363.976562 600.957031 363.214844 600.957031 362.261719 Z M 602.363281 351.058594 C 602.363281 350.109375 601.601562 349.34375 600.648438 349.34375 L 589.222656 349.34375 C 588.273438 349.34375 587.507812 350.109375 587.507812 351.058594 C 587.507812 352.003906 588.273438 352.777344 589.222656 352.777344 L 600.648438 352.777344 C 601.601562 352.777344 602.363281 352.003906 602.363281 351.058594 Z M 605.183594 328.648438 C 605.183594 327.695312 604.414062 326.933594 603.46875 326.933594 L 592.035156 326.933594 C 591.089844 326.933594 590.320312 327.695312 590.320312 328.648438 C 590.320312 329.59375 591.089844 330.363281 592.035156 330.363281 L 603.46875 330.363281 C 604.414062 330.363281 605.183594 329.59375 605.183594 328.648438 Z M 606.589844 317.4375 C 606.589844 316.492188 605.820312 315.722656 604.875 315.722656 L 593.441406 315.722656 C 592.5 315.722656 591.726562 316.492188 591.726562 317.4375 C 591.726562 318.382812 592.5 319.152344 593.441406 319.152344 L 604.875 319.152344 C 605.820312 319.152344 606.589844 318.382812 606.589844 317.4375 Z M 607.996094 306.234375 C 607.996094 305.285156 607.234375 304.519531 606.28125 304.519531 L 594.855469 304.519531 C 593.90625 304.519531 593.140625 305.285156 593.140625 306.234375 C 593.140625 307.179688 593.90625 307.949219 594.855469 307.949219 L 606.28125 307.949219 C 607.234375 307.949219 607.996094 307.179688 607.996094 306.234375 Z M 609.402344 295.027344 C 609.402344 294.082031 608.640625 293.3125 607.6875 293.3125 L 596.261719 293.3125 C 595.3125 293.3125 594.546875 294.082031 594.546875 295.027344 C 594.546875 295.96875 595.3125 296.742188 596.261719 296.742188 L 607.6875 296.742188 C 608.640625 296.742188 609.402344 295.96875 609.402344 295.027344 Z M 610.808594 283.816406 C 610.808594 282.871094 610.046875 282.101562 609.09375 282.101562 L 597.667969 282.101562 C 596.722656 282.101562 595.953125 282.871094 595.953125 283.816406 C 595.953125 284.769531 596.722656 285.53125 597.667969 285.53125 L 609.09375 285.53125 C 610.046875 285.53125 610.808594 284.769531 610.808594 283.816406 Z M 348.09375 291.863281 L 356.15625 291.460938 C 356.554688 286.757812 357.914062 282.421875 360.136719 281.324219 C 357.765625 281.074219 355.460938 281.144531 353.707031 281.914062 C 353.59375 275.964844 351.242188 272.792969 349.769531 269.054688 C 349.742188 273.332031 350.90625 272.015625 350.457031 277.746094 C 350.210938 280.921875 350.851562 284.179688 350.109375 287.273438 C 349.722656 288.914062 348.957031 290.410156 348.09375 291.863281 Z M 357.878906 291.375 L 364.597656 291.039062 C 364.089844 285.90625 362.445312 282.769531 361.253906 282.769531 C 360.035156 282.769531 358.347656 286.046875 357.878906 291.375 Z M 364.722656 292.746094 L 357.765625 293.097656 C 357.753906 293.5 357.746094 293.90625 357.746094 294.328125 C 357.746094 301.382812 359.820312 305.886719 361.253906 305.886719 C 362.683594 305.886719 364.765625 301.382812 364.765625 294.328125 C 364.765625 293.785156 364.746094 293.265625 364.722656 292.746094 Z M 203.046875 361.695312 C 201.183594 349.433594 204.761719 336.445312 212.644531 326.878906 C 215.53125 323.367188 219.101562 320.039062 219.992188 315.582031 C 220.902344 310.984375 218.726562 306.417969 217.726562 301.839844 C 215.832031 293.101562 218.53125 283.496094 224.707031 277.027344 C 229.441406 272.070312 236 268.921875 239.996094 263.347656 C 243.351562 258.675781 244.53125 252.847656 246.828125 247.582031 C 253.277344 232.8125 269.589844 222.984375 285.648438 224.175781 C 290.117188 218.617188 298.757812 216.011719 305.777344 217.25 C 312.796875 218.488281 319.039062 222.476562 324.496094 227.058594 C 341.675781 224.425781 363.269531 240.820312 369.273438 283.359375 C 367.65625 282.878906 365.40625 282.234375 363.035156 281.765625 C 365.28125 283.675781 366.480469 289.136719 366.480469 294.328125 C 366.480469 300.761719 364.644531 307.601562 361.253906 307.601562 C 357.859375 307.601562 356.03125 300.761719 356.03125 294.328125 C 356.03125 293.945312 356.039062 293.566406 356.050781 293.183594 L 352.167969 293.378906 C 352.910156 293.773438 353.464844 295.242188 353.464844 297.003906 C 353.464844 299.066406 352.703125 300.742188 351.765625 300.742188 C 350.820312 300.742188 350.0625 299.066406 350.0625 297.003906 C 350.0625 295.292969 350.585938 293.867188 351.296875 293.417969 L 346.996094 293.632812 C 345.976562 295.234375 344.945312 296.835938 344.25 298.589844 C 341.066406 306.636719 345.574219 315.761719 344.308594 324.332031 C 343.511719 329.707031 340.503906 334.476562 338.878906 339.664062 C 336.574219 347.019531 338.195312 357.199219 341.578125 364.125 L 317.785156 364.125 C 316.300781 358.519531 314.382812 353.433594 314.167969 347.636719 C 312.589844 353.699219 311.890625 359.226562 311.363281 365.480469 C 308.4375 357.574219 306.5 349.882812 306.304688 341.457031 C 305.46875 348.199219 305.179688 354.945312 304.34375 361.695312 Z M 363.832031 593.179688 C 366.464844 596.492188 369.351562 599.621094 372.515625 602.46875 C 375.65625 605.320312 379.144531 607.855469 382.996094 609.796875 C 384.933594 610.730469 386.976562 611.480469 389.078125 612.007812 C 391.226562 612.476562 393.296875 612.707031 395.378906 613 C 399.558594 613.53125 403.738281 614.050781 407.925781 614.425781 C 416.304688 615.226562 424.703125 615.746094 433.121094 615.902344 C 433.332031 615.902344 433.511719 615.742188 433.519531 615.53125 C 433.53125 615.320312 433.363281 615.136719 433.148438 615.125 C 428.964844 614.890625 424.777344 614.546875 420.605469 614.164062 C 416.425781 613.804688 412.253906 613.394531 408.085938 612.917969 C 403.921875 612.425781 399.753906 611.949219 395.601562 611.371094 C 393.53125 611.070312 391.421875 610.816406 389.472656 610.375 C 387.503906 609.863281 385.589844 609.148438 383.746094 608.257812 C 376.359375 604.597656 370.289062 598.613281 364.953125 592.261719 C 362.273438 589.066406 359.789062 585.695312 357.457031 582.226562 C 355.101562 578.769531 352.875 575.203125 350.886719 571.53125 L 350.878906 571.519531 C 350.792969 571.363281 350.605469 571.304688 350.445312 571.386719 C 350.285156 571.464844 350.21875 571.660156 350.296875 571.820312 C 354.046875 579.386719 358.554688 586.5625 363.832031 593.179688 Z M 306.445312 489.5 C 305.496094 488.929688 304.617188 488.269531 303.773438 487.550781 C 302.9375 486.820312 302.167969 485.996094 301.394531 485.132812 C 301.300781 485.03125 301.15625 484.992188 301.019531 485.046875 C 300.855469 485.113281 300.765625 485.304688 300.832031 485.472656 C 301.722656 487.726562 303.464844 489.648438 305.535156 490.953125 C 306.582031 491.605469 307.6875 492.132812 308.835938 492.496094 C 309.808594 492.804688 310.792969 493.011719 311.792969 493.140625 C 315.09375 500.664062 318.523438 508.132812 321.972656 515.589844 C 325.910156 523.886719 329.875 532.167969 333.949219 540.394531 C 338.027344 548.625 342.1875 556.804688 346.539062 564.898438 C 346.632812 565.085938 346.867188 565.160156 347.050781 565.066406 C 347.242188 564.972656 347.324219 564.738281 347.230469 564.542969 C 345.199219 560.429688 343.222656 556.289062 341.253906 552.148438 L 335.3125 539.734375 L 323.519531 514.863281 C 319.582031 506.578125 315.738281 498.246094 311.9375 489.902344 C 310.035156 485.730469 308.179688 481.535156 306.378906 477.328125 C 304.597656 473.113281 302.761719 468.890625 301.429688 464.535156 L 301.421875 464.515625 C 301.375 464.347656 301.195312 464.253906 301.019531 464.300781 C 300.847656 464.347656 300.746094 464.527344 300.800781 464.703125 C 303.339844 473.59375 307.015625 482.035156 310.613281 490.484375 C 310.820312 490.953125 311.035156 491.425781 311.242188 491.894531 C 310.621094 491.625 309.988281 491.363281 309.394531 491.082031 C 308.375 490.59375 307.378906 490.089844 306.445312 489.5 Z M 351.449219 326.632812 C 352.097656 327.046875 352.828125 327.308594 353.574219 327.488281 C 354.324219 327.636719 355.078125 327.710938 355.828125 327.636719 C 356.203125 327.609375 356.566406 327.535156 356.933594 327.480469 C 357.296875 327.375 357.652344 327.28125 357.992188 327.140625 C 358.101562 327.09375 358.179688 326.992188 358.199219 326.878906 C 358.226562 326.691406 358.101562 326.515625 357.914062 326.492188 C 356.5 326.269531 355.207031 326.121094 353.953125 325.820312 C 353.332031 325.671875 352.730469 325.480469 352.121094 325.269531 C 351.523438 325.0625 350.914062 324.773438 350.351562 324.5 L 350.277344 324.460938 C 350.164062 324.40625 350.03125 324.40625 349.910156 324.480469 C 349.722656 324.585938 349.660156 324.828125 349.769531 325.007812 C 350.195312 325.738281 350.792969 326.214844 351.449219 326.632812 Z M 706.226562 617.785156 L 676.535156 573.125 L 676.535156 572.738281 L 655.0625 572.496094 L 633.589844 572.421875 L 590.636719 572.269531 L 547.683594 572.457031 L 526.210938 572.550781 L 504.730469 572.796875 L 504.730469 573.457031 L 505.230469 573.460938 L 506.925781 574.59375 L 512.613281 584.375 L 502.601562 582.949219 C 502.660156 582.921875 502.726562 582.902344 502.789062 582.867188 C 503.175781 582.675781 503.503906 582.378906 503.796875 582.066406 C 504.074219 581.730469 504.320312 581.367188 504.46875 580.960938 C 504.617188 580.550781 504.714844 580.121094 504.667969 579.667969 C 504.65625 579.585938 504.621094 579.5 504.570312 579.433594 C 504.414062 579.25 504.140625 579.230469 503.960938 579.386719 L 503.9375 579.398438 C 503.625 579.667969 503.398438 579.933594 503.15625 580.1875 C 502.914062 580.4375 502.714844 580.699219 502.5 580.953125 C 502.292969 581.214844 502.070312 581.460938 501.871094 581.75 C 501.65625 582.03125 501.433594 582.3125 501.21875 582.667969 L 501.207031 582.679688 C 501.207031 582.695312 501.207031 582.703125 501.199219 582.714844 L 501.097656 582.5625 L 491.226562 580.46875 C 491.285156 580.230469 491.355469 579.996094 491.402344 579.761719 C 491.574219 578.9375 491.621094 578.097656 491.628906 577.261719 C 491.609375 576.417969 491.542969 575.578125 491.355469 574.761719 C 491.179688 573.945312 490.9375 573.132812 490.550781 572.382812 C 490.484375 572.253906 490.347656 572.167969 490.203125 572.167969 C 489.980469 572.160156 489.792969 572.34375 489.792969 572.5625 C 489.78125 573.382812 489.828125 574.164062 489.847656 574.949219 L 489.914062 577.289062 L 489.960938 579.625 C 489.96875 580.128906 489.980469 580.644531 489.988281 581.152344 L 485.066406 580.449219 C 467.929688 577.882812 450.785156 575.277344 433.804688 571.925781 C 429.574219 571.082031 425.320312 570.226562 421.226562 569.019531 C 420.222656 568.703125 419.191406 568.371094 418.335938 567.925781 C 417.871094 567.671875 417.792969 567.621094 417.449219 567.070312 L 416.578125 565.757812 C 415.441406 563.921875 414.308594 562.078125 413.203125 560.214844 C 408.769531 552.777344 404.429688 545.265625 400.097656 537.761719 L 384.757812 511.117188 L 567.929688 511.117188 L 578.015625 549.710938 L 650.695312 549.710938 L 640.617188 511.117188 L 750.984375 511.117188 C 761.753906 511.117188 770.792969 503.015625 771.980469 492.316406 L 798.539062 252.679688 C 799.921875 240.164062 790.132812 229.214844 777.539062 229.214844 L 405.640625 229.214844 C 394.871094 229.214844 385.828125 237.316406 384.644531 248.023438 L 361.382812 457.929688 C 363.578125 464.355469 365.386719 470.621094 366.554688 476.375 L 391.769531 248.8125 C 392.554688 241.730469 398.515625 236.390625 405.640625 236.390625 L 777.539062 236.390625 C 781.558594 236.390625 785.253906 238.046875 787.933594 241.042969 C 790.621094 244.035156 791.851562 247.890625 791.410156 251.890625 L 764.855469 491.523438 C 764.070312 498.601562 758.101562 503.941406 750.984375 503.941406 L 582.972656 503.941406 C 583.148438 503.679688 583.269531 503.378906 583.269531 503.042969 C 583.269531 502.089844 582.503906 501.328125 581.554688 501.328125 L 570.128906 501.328125 C 569.175781 501.328125 568.414062 502.089844 568.414062 503.042969 C 568.414062 503.378906 568.535156 503.679688 568.707031 503.941406 L 380.625 503.941406 L 374.136719 492.675781 C 374.046875 492.53125 373.855469 492.46875 373.691406 492.554688 C 373.539062 492.644531 373.480469 492.84375 373.566406 493.003906 L 379.613281 503.941406 L 379.417969 503.941406 C 380.660156 506.378906 381.890625 508.769531 383.109375 511.117188 L 383.570312 511.117188 L 386.144531 515.773438 L 398.929688 538.433594 C 403.21875 545.972656 407.496094 553.507812 411.890625 560.992188 C 412.984375 562.867188 414.109375 564.730469 415.246094 566.59375 L 416.15625 567.988281 C 416.351562 568.242188 416.363281 568.402344 416.734375 568.746094 C 417.042969 569.054688 417.300781 569.171875 417.578125 569.335938 C 418.648438 569.890625 419.695312 570.226562 420.753906 570.566406 C 424.964844 571.839844 429.21875 572.726562 433.476562 573.601562 C 450.539062 576.886719 467.703125 579.378906 484.863281 581.851562 L 510.636719 585.386719 L 536.449219 588.558594 C 536.65625 588.578125 536.859375 588.429688 536.878906 588.222656 C 536.914062 588.007812 536.757812 587.8125 536.550781 587.785156 L 527.011719 586.425781 L 535.445312 573.742188 L 547.683594 573.796875 L 590.636719 573.976562 L 633.589844 573.832031 L 655.0625 573.757812 L 665.445312 573.636719 L 694.792969 617.785156 L 683.921875 617.785156 L 668.34375 600.148438 L 661.15625 604.871094 L 674.464844 617.785156 L 631.324219 617.785156 L 670.554688 592.878906 L 615.285156 592.878906 L 623.597656 608.15625 C 624.234375 609.328125 623.75 610.796875 622.539062 611.351562 C 620.292969 611.191406 617.753906 610.132812 615.597656 608.636719 C 615.597656 608.585938 615.617188 608.542969 615.597656 608.496094 C 614.675781 606.320312 614.65625 603.914062 614.359375 601.441406 C 614.226562 600.195312 613.957031 598.921875 613.46875 597.691406 C 612.980469 596.457031 612.285156 595.339844 611.472656 594.328125 C 609.804688 592.351562 607.796875 590.789062 605.765625 589.410156 C 603.738281 588.015625 601.707031 586.707031 599.886719 585.113281 C 599.773438 585.007812 599.589844 585 599.464844 585.105469 C 599.324219 585.222656 599.304688 585.421875 599.417969 585.5625 C 600.996094 587.527344 603 589.058594 604.910156 590.574219 C 606.816406 592.082031 608.714844 593.5625 610.148438 595.40625 C 610.878906 596.304688 611.511719 597.269531 611.949219 598.304688 C 612.402344 599.34375 612.617188 600.492188 612.859375 601.664062 C 613.214844 603.574219 613.4375 605.683594 614.265625 607.605469 C 613.214844 606.703125 612.304688 605.710938 611.679688 604.671875 L 606.214844 595.53125 L 596.503906 593.1875 C 596.484375 593.160156 596.46875 593.132812 596.449219 593.113281 C 596.363281 593.011719 596.222656 592.960938 596.089844 593.007812 C 596.054688 593.019531 596.042969 593.054688 596.015625 593.066406 L 595.886719 593.039062 L 582.222656 603.613281 C 582.238281 603.53125 582.25 603.457031 582.257812 603.386719 C 582.335938 602.667969 582.289062 601.953125 582.183594 601.242188 C 582.0625 600.53125 581.875 599.835938 581.582031 599.175781 C 581.285156 598.527344 580.929688 597.898438 580.441406 597.363281 C 580.347656 597.269531 580.207031 597.214844 580.074219 597.242188 C 579.851562 597.273438 579.707031 597.488281 579.746094 597.710938 C 579.851562 598.386719 580.011719 599.015625 580.132812 599.648438 C 580.246094 600.28125 580.394531 600.898438 580.496094 601.527344 C 580.621094 602.152344 580.703125 602.78125 580.808594 603.417969 C 580.871094 603.792969 580.929688 604.183594 580.992188 604.570312 L 570.132812 612.972656 C 567.046875 615.359375 563.476562 616.964844 559.710938 617.785156 L 549.164062 617.785156 L 535.792969 615.933594 C 536.609375 615.203125 537.347656 614.355469 537.863281 613.347656 C 538.527344 612.121094 538.839844 610.675781 538.632812 609.320312 C 538.605469 609.160156 538.472656 609.019531 538.300781 608.992188 C 538.085938 608.964844 537.890625 609.113281 537.855469 609.328125 C 537.675781 610.535156 537.246094 611.625 536.589844 612.585938 C 536.308594 612.980469 535.980469 613.347656 535.648438 613.710938 C 535.625 612.917969 535.527344 612.140625 535.339844 611.378906 C 534.984375 609.90625 534.367188 608.496094 533.441406 607.332031 C 533.355469 607.21875 533.203125 607.171875 533.066406 607.222656 C 532.894531 607.292969 532.8125 607.480469 532.875 607.652344 C 533.371094 608.972656 533.730469 610.292969 533.886719 611.640625 C 534.039062 612.988281 534.03125 614.332031 533.824219 615.648438 C 533.816406 615.695312 533.832031 615.734375 533.832031 615.78125 L 441.730469 615.117188 L 437.699219 617.785156 L 353.324219 617.785156 C 353.539062 618.359375 353.753906 618.929688 353.96875 619.5 L 798.671875 619.5 L 798.671875 617.785156 Z M 98.941406 617.785156 L 98.941406 619.5 L 290.671875 619.5 C 302.292969 619.5 305.636719 617.785156 305.636719 617.785156 C 307.148438 617.375 308.597656 616.824219 309.96875 616.15625 C 319.808594 611.339844 325.738281 600.128906 322.929688 588.578125 L 290.117188 453.535156 C 287.464844 442.625 277.707031 434.953125 266.492188 434.953125 L 83.179688 434.953125 C 67.433594 434.953125 55.839844 449.707031 59.558594 465.019531 L 92.371094 600.0625 C 94.5 608.832031 101.238281 615.5 109.625 617.785156 Z M 365.125 644.566406 C 365.125 644.566406 365.085938 644.878906 364.992188 645.421875 L 365 645.421875 C 363.800781 652.585938 352.882812 703.960938 285.132812 703.960938 C 260.332031 703.960938 242.402344 699.863281 232.421875 696.773438 C 235.964844 717.0625 253.648438 732.484375 274.941406 732.484375 L 405.265625 732.484375 C 437.535156 732.484375 469.023438 719.039062 469.023438 719.039062 L 458.902344 779.039062 L 525.34375 779.039062 C 525.34375 779.039062 533.035156 719.039062 536.351562 678.785156 C 538.292969 655.210938 520.9375 647.648438 506.214844 645.421875 L 625.753906 645.421875 L 617.988281 712.269531 L 642.558594 716.34375 L 650.796875 645.421875 L 739.261719 645.421875 L 749.550781 734.082031 L 775.082031 738.308594 L 764.304688 645.421875 L 798.671875 645.421875 L 798.671875 643.707031 L 364.683594 643.707031 C 364.964844 644.257812 365.125 644.566406 365.125 644.566406 Z M 216.695312 643.707031 L 98.941406 643.707031 L 98.941406 645.421875 L 155.589844 645.421875 C 155.539062 645.675781 155.5625 645.945312 155.492188 646.199219 L 155.261719 647.929688 C 155.089844 649.082031 155.027344 650.246094 154.914062 651.40625 L 154.71875 654.898438 L 154.625 656.640625 L 154.578125 657.515625 C 154.601562 657.8125 154.386719 658.078125 154.941406 658.433594 C 155.570312 658.214844 155.417969 657.90625 155.511719 657.625 L 155.664062 656.757812 L 156.589844 651.601562 C 156.734375 650.441406 156.945312 649.296875 157.042969 648.136719 L 157.21875 646.402344 C 157.199219 646.074219 157.339844 645.757812 157.277344 645.421875 L 216.722656 645.421875 C 216.707031 644.851562 216.703125 644.285156 216.695312 643.707031 Z M 507.976562 271.3125 C 507.976562 270.367188 507.207031 269.597656 506.261719 269.597656 L 480.730469 269.597656 C 479.785156 269.597656 479.015625 270.367188 479.015625 271.3125 C 479.015625 272.265625 479.785156 273.027344 480.730469 273.027344 L 506.261719 273.027344 C 507.207031 273.027344 507.976562 272.265625 507.976562 271.3125 Z M 440.222656 271.320312 C 440.046875 272.722656 441.039062 273.851562 442.441406 273.851562 C 443.839844 273.851562 445.117188 272.722656 445.292969 271.320312 C 445.472656 269.921875 444.484375 268.78125 443.074219 268.78125 C 441.683594 268.78125 440.402344 269.921875 440.222656 271.320312 Z M 432.839844 273.851562 C 431.441406 273.851562 430.445312 272.722656 430.625 271.320312 C 430.796875 269.921875 432.078125 268.78125 433.476562 268.78125 C 434.878906 268.78125 435.867188 269.921875 435.695312 271.320312 C 435.519531 272.722656 434.242188 273.851562 432.839844 273.851562 " fill-opacity="1" fill-rule="nonzero"/></g><g clip-path="url(#0c24cd5a9c)"><path fill="#4f6281" d="M 672.964844 549.710938 L 659.15625 549.710938 L 649.074219 511.117188 L 640.617188 511.117188 L 650.695312 549.710938 L 506.210938 549.710938 C 498.914062 549.710938 493 555.625 493 562.929688 L 686.179688 562.929688 C 686.179688 555.625 680.265625 549.710938 672.964844 549.710938 Z M 205.699219 548.804688 L 177.230469 548.804688 C 175.410156 548.804688 173.871094 550.171875 173.660156 551.980469 L 150.613281 751.753906 C 150.375 753.886719 152.042969 755.761719 154.183594 755.761719 L 182.65625 755.761719 C 184.480469 755.761719 186.011719 754.394531 186.226562 752.578125 L 209.265625 552.8125 C 209.515625 550.675781 207.847656 548.804688 205.699219 548.804688 Z M 630.03125 618.601562 L 641.585938 618.601562 L 667.890625 601.308594 L 683.171875 618.601562 L 691.707031 618.601562 L 670.554688 592.878906 Z M 788.859375 229.214844 L 777.539062 229.214844 C 790.132812 229.214844 799.921875 240.164062 798.539062 252.679688 L 771.980469 492.316406 C 770.792969 503.015625 761.753906 511.117188 750.984375 511.117188 L 762.300781 511.117188 C 773.066406 511.117188 782.113281 503.015625 783.300781 492.316406 L 809.855469 252.679688 C 811.242188 240.164062 801.445312 229.214844 788.859375 229.214844 Z M 507.976562 271.3125 C 507.976562 270.367188 507.207031 269.597656 506.261719 269.597656 L 480.730469 269.597656 C 479.785156 269.597656 479.015625 270.367188 479.015625 271.3125 C 479.015625 272.265625 479.785156 273.027344 480.730469 273.027344 L 506.261719 273.027344 C 507.207031 273.027344 507.976562 272.265625 507.976562 271.3125 Z M 443.074219 268.78125 C 441.683594 268.78125 440.402344 269.921875 440.222656 271.320312 C 440.046875 272.722656 441.039062 273.851562 442.441406 273.851562 C 443.839844 273.851562 445.117188 272.722656 445.292969 271.320312 C 445.472656 269.921875 444.484375 268.78125 443.074219 268.78125 Z M 433.476562 268.78125 C 432.078125 268.78125 430.796875 269.921875 430.625 271.320312 C 430.445312 272.722656 431.441406 273.851562 432.839844 273.851562 C 434.242188 273.851562 435.519531 272.722656 435.695312 271.320312 C 435.867188 269.921875 434.878906 268.78125 433.476562 268.78125 Z M 454.898438 271.320312 C 454.722656 272.722656 453.445312 273.851562 452.042969 273.851562 C 450.644531 273.851562 449.652344 272.722656 449.828125 271.320312 C 450 269.921875 451.28125 268.78125 452.679688 268.78125 C 454.082031 268.78125 455.070312 269.921875 454.898438 271.320312 " fill-opacity="1" fill-rule="nonzero"/></g></svg>